<svg width="31" height="31" viewBox="0 0 31 31" fill="none" xmlns="http://www.w3.org/2000/svg">
<g clip-path="url(#clip0_1816_54345)">
<path d="M15.5 30.5C23.7843 30.5 30.5 23.7843 30.5 15.5C30.5 7.21573 23.7843 0.5 15.5 0.5C7.21573 0.5 0.5 7.21573 0.5 15.5C0.5 23.7843 7.21573 30.5 15.5 30.5Z" fill="#FFDF40"/>
<path d="M15.4998 26.9095C21.801 26.9095 26.9092 21.8013 26.9092 15.5C26.9092 9.19876 21.801 4.09058 15.4998 4.09058C9.19852 4.09058 4.09033 9.19876 4.09033 15.5C4.09033 21.8013 9.19852 26.9095 15.4998 26.9095Z" fill="#FFBE40"/>
<path d="M8.9375 15.4964C8.9375 14.6627 9.03053 13.8984 9.2166 13.2036C9.40267 12.5041 9.65792 11.8764 9.98235 11.3206C10.3115 10.7647 10.7028 10.2808 11.156 9.86871C11.6093 9.45184 12.1031 9.10685 12.6374 8.83373C13.1718 8.55582 13.7371 8.34739 14.3335 8.20843C14.9346 8.06948 15.5429 8 16.1584 8C16.7023 8 17.2247 8.05031 17.7257 8.15093C18.2266 8.25156 18.6942 8.39051 19.1283 8.5678C19.5625 8.7403 19.9561 8.94873 20.3092 9.1931C20.667 9.43747 20.9723 9.7034 21.2252 9.9909C21.4781 10.2736 21.6737 10.5755 21.812 10.8965C21.9504 11.2127 22.0196 11.5362 22.0196 11.8668C22.0196 12.1064 21.9885 12.3292 21.9265 12.5352C21.8645 12.7365 21.7715 12.9138 21.6474 13.0671C21.5281 13.2156 21.3779 13.333 21.1966 13.4193C21.0153 13.5055 20.8053 13.5534 20.5668 13.563C20.3903 13.5726 20.2185 13.563 20.0515 13.5343C19.8893 13.5055 19.7295 13.4528 19.572 13.3761C19.4146 13.2947 19.2619 13.1821 19.114 13.0383C18.9661 12.8946 18.8254 12.7077 18.6918 12.4777C18.5153 12.1854 18.3244 11.9459 18.1193 11.759C17.9189 11.5673 17.7042 11.4164 17.4752 11.3062C17.2462 11.1912 17.0005 11.1121 16.7381 11.069C16.4804 11.0259 16.2085 11.0043 15.9222 11.0043C15.4976 11.0043 15.0945 11.1025 14.7128 11.299C14.3311 11.4954 13.9948 11.7853 13.7037 12.1687C13.4127 12.5472 13.1813 13.0168 13.0095 13.5774C12.8378 14.1332 12.7519 14.7729 12.7519 15.4964C12.7519 16.1672 12.8259 16.7781 12.9738 17.3292C13.1217 17.8802 13.3387 18.3546 13.625 18.7523C13.916 19.1452 14.2715 19.4494 14.6913 19.6651C15.1159 19.8807 15.605 19.9885 16.1584 19.9885C16.4065 19.9885 16.6355 19.9669 16.8454 19.9238C17.0601 19.8807 17.27 19.7968 17.4752 19.6723C17.6851 19.5429 17.8974 19.3656 18.1121 19.1404C18.3316 18.9152 18.5725 18.6181 18.8349 18.2492C19.0162 17.976 19.2261 17.7676 19.4647 17.6239C19.7032 17.4753 19.9633 17.4011 20.2448 17.4011C20.5024 17.4011 20.7409 17.4442 20.9604 17.5304C21.1799 17.6119 21.3707 17.7293 21.5329 17.8826C21.6999 18.0359 21.8287 18.218 21.9194 18.4288C22.0148 18.6397 22.0625 18.8745 22.0625 19.1332C22.0625 19.5309 21.9742 19.9046 21.7977 20.2544C21.6212 20.5994 21.3826 20.9157 21.0821 21.2032C20.7815 21.4859 20.4308 21.7398 20.0301 21.965C19.6341 22.1854 19.2166 22.3747 18.7777 22.5328C18.3435 22.6862 17.8998 22.8011 17.4466 22.8778C16.9981 22.9593 16.5687 23 16.1584 23C15.5334 23 14.9203 22.9353 14.3192 22.8059C13.7228 22.6766 13.1551 22.4777 12.6159 22.2094C12.0816 21.9411 11.5902 21.6033 11.1417 21.196C10.6932 20.7887 10.3044 20.3071 9.97519 19.7513C9.65076 19.1955 9.39552 18.563 9.20945 17.8539C9.02815 17.1447 8.9375 16.3589 8.9375 15.4964Z" fill="#FFDF40"/>
</g>
<defs>
<clipPath id="clip0_1816_54345">
<rect width="30" height="30" fill="white" transform="translate(0.5 0.5)"/>
</clipPath>
</defs>
</svg>
