<svg width="81" height="80" viewBox="0 0 81 80" fill="none" xmlns="http://www.w3.org/2000/svg">
<g opacity="0.48">
<path opacity="0.48" fill-rule="evenodd" clip-rule="evenodd" d="M14.6268 57.3774L15.5973 58.348L16.5708 57.3748L16.9868 57.7907L16.0131 58.7637L16.9841 59.7342L16.567 60.1512L15.5959 59.1808L14.623 60.1539L14.207 59.738L15.18 58.7651L14.2097 57.7945L14.6268 57.3774Z" fill="#0042ED"/>
<path opacity="0.48" fill-rule="evenodd" clip-rule="evenodd" d="M58.6588 8.51173L59.6292 9.48227L60.6028 8.50905L61.0188 8.92494L60.0451 9.89799L61.0161 10.8684L60.599 11.2855L59.6278 10.3151L58.655 11.2882L58.239 10.8723L59.212 9.89939L58.2417 8.92876L58.6588 8.51173Z" fill="#0042ED"/>
<path opacity="0.72" d="M41.4856 69.8903C41.6682 69.7082 41.9155 69.606 42.1734 69.606C42.4313 69.606 42.6787 69.7082 42.8613 69.8903L43.554 70.5828C43.6447 70.6731 43.7172 70.7809 43.7664 70.8991C43.8156 71.0174 43.841 71.1443 43.841 71.2726C43.841 71.4009 43.8156 71.5278 43.7664 71.6462C43.7172 71.7643 43.6452 71.8716 43.5545 71.9619L42.8613 72.6549C42.6787 72.837 42.4313 72.9393 42.1734 72.9393C41.9155 72.9393 41.6682 72.837 41.4856 72.6549L40.7929 71.9624C40.7021 71.8721 40.6296 71.7643 40.5805 71.6462C40.5312 71.5278 40.5059 71.4008 40.5059 71.2726C40.5059 71.1444 40.5312 71.0175 40.5805 70.8991C40.6296 70.7809 40.7016 70.6736 40.7924 70.5834L41.4856 69.8903Z" fill="#0042ED"/>
<path fill-rule="evenodd" clip-rule="evenodd" d="M64.9653 26.0271C64.9652 26.0272 64.9653 26.0271 64.9653 26.0271L64.2724 26.7198L63.9798 26.4272L64.2715 26.7207C64.258 26.7342 64.2472 26.7502 64.2399 26.7678C64.2325 26.7854 64.2288 26.8043 64.2288 26.8234C64.2288 26.8425 64.2325 26.8614 64.2399 26.879C64.2472 26.8966 64.258 26.9126 64.2715 26.9261L64.2724 26.927L64.9653 27.6197C64.9652 27.6196 64.9653 27.6197 64.9653 27.6197C64.9927 27.647 65.03 27.6624 65.0687 27.6624C65.1074 27.6624 65.1445 27.6471 65.1719 27.6198C65.1719 27.6199 65.172 27.6198 65.1719 27.6198L65.8659 26.9261C65.8794 26.9126 65.8902 26.8966 65.8975 26.879C65.9048 26.8613 65.9086 26.8424 65.9086 26.8234C65.9086 26.8044 65.9049 26.7855 65.8975 26.7678C65.8902 26.7502 65.8794 26.7342 65.8659 26.7207L65.865 26.7198L65.1721 26.0271C65.1721 26.0271 65.1722 26.0272 65.1721 26.0271C65.1447 25.9999 65.1074 25.9844 65.0687 25.9844C65.03 25.9844 64.9927 25.9998 64.9653 26.0271ZM63.6876 26.1341L64.3808 25.4411C64.5634 25.259 64.8108 25.1567 65.0687 25.1567C65.3266 25.1567 65.574 25.259 65.7565 25.4411L65.7569 25.4415L66.4492 26.1336C66.4494 26.1338 66.4495 26.1339 66.4497 26.1341C66.5405 26.2244 66.6125 26.3317 66.6616 26.4498C66.7109 26.5682 66.7363 26.6951 66.7363 26.8234C66.7363 26.9517 66.7109 27.0786 66.6616 27.197C66.6125 27.3151 66.5405 27.4224 66.4497 27.5127C66.4496 27.5129 66.4494 27.513 66.4492 27.5132L65.7565 28.2057C65.574 28.3878 65.3266 28.4901 65.0687 28.4901C64.8108 28.4901 64.5634 28.3878 64.3808 28.2057L63.6881 27.5132C63.688 27.513 63.6878 27.5128 63.6876 27.5127C63.5969 27.4224 63.5249 27.3151 63.4757 27.197C63.4265 27.0786 63.4011 26.9516 63.4011 26.8234C63.4011 26.6952 63.4265 26.5682 63.4757 26.4498C63.5249 26.3317 63.5969 26.2244 63.6876 26.1341Z" fill="#0042ED"/>
<path opacity="0.48" fill-rule="evenodd" clip-rule="evenodd" d="M70.2016 44.2115C70.301 44.1859 70.4056 44.1853 70.5057 44.2101C70.6152 44.2373 70.715 44.2939 70.7946 44.3734C70.8743 44.4531 70.9307 44.5529 70.9578 44.6623C70.9827 44.7624 70.9821 44.8669 70.9564 44.9664L70.5726 47.0273C70.5414 47.1892 70.4396 47.4222 70.1814 47.5015C69.9231 47.5809 69.7082 47.4451 69.5918 47.3288L67.8394 45.5768C67.7207 45.4591 67.5853 45.2434 67.6655 44.9848C67.7456 44.7265 67.9792 44.625 68.143 44.5948C68.1432 44.5947 68.1434 44.5947 68.1436 44.5946L70.2016 44.2115ZM70.1321 45.0359L68.6943 45.3035L69.8644 46.4732L70.1321 45.0359Z" fill="#0042ED"/>
<path opacity="0.8" fill-rule="evenodd" clip-rule="evenodd" d="M68.8068 62.8439C68.9063 62.8182 69.0108 62.8176 69.1109 62.8425C69.2205 62.8697 69.3203 62.9262 69.3998 63.0057C69.4795 63.0854 69.5359 63.1853 69.5631 63.2946C69.5879 63.3947 69.5873 63.4993 69.5617 63.5987L69.1778 65.6597C69.1466 65.8215 69.0448 66.0545 68.7866 66.1338C68.5283 66.2132 68.3134 66.0775 68.197 65.9611L66.4446 64.2091C66.3259 64.0915 66.1906 63.8757 66.2707 63.6172C66.3508 63.3589 66.5844 63.2573 66.7482 63.2271C66.7484 63.227 66.7486 63.227 66.7488 63.227L68.8068 62.8439ZM68.7373 63.6682L67.2996 63.9359L68.4696 65.1056L68.7373 63.6682Z" fill="#0042ED"/>
<path opacity="0.8" fill-rule="evenodd" clip-rule="evenodd" d="M8.83371 48.3152C8.71249 48.3152 8.59396 48.3512 8.49312 48.4186C8.39227 48.4859 8.31375 48.5816 8.2674 48.6935C8.22103 48.8054 8.2089 48.9286 8.23254 49.0474C8.25618 49.1662 8.31453 49.2754 8.40024 49.3611C8.4859 49.4467 8.5951 49.5051 8.7141 49.5287C8.83316 49.5524 8.95642 49.5403 9.06831 49.494C9.18026 49.4476 9.27601 49.369 9.34338 49.2682C9.41072 49.1675 9.44665 49.049 9.44665 48.9279C9.44665 48.7654 9.3821 48.6096 9.26717 48.4947C9.15225 48.3798 8.99634 48.3152 8.83371 48.3152ZM7.90764 47.5421C8.18174 47.359 8.504 47.2612 8.83371 47.2612C9.27574 47.2612 9.69973 47.4367 10.0124 47.7493C10.325 48.0619 10.5007 48.4858 10.5007 48.9279C10.5007 49.2576 10.4029 49.5798 10.2197 49.8539C10.0366 50.1279 9.77623 50.3416 9.47158 50.4678C9.16688 50.594 8.83173 50.6268 8.50853 50.5625C8.18527 50.4982 7.88823 50.3396 7.65504 50.1065C7.4219 49.8734 7.26311 49.5764 7.19878 49.2531C7.13446 48.9298 7.16747 48.5946 7.29366 48.29C7.41987 47.9854 7.63357 47.7252 7.90764 47.5421Z" fill="#0042ED"/>
<path opacity="0.8" fill-rule="evenodd" clip-rule="evenodd" d="M36.8618 12.2679C36.7406 12.2679 36.622 12.3038 36.5212 12.3712C36.4203 12.4386 36.3418 12.5342 36.2955 12.6461C36.2491 12.758 36.237 12.8812 36.2606 13.0001C36.2843 13.1189 36.3426 13.228 36.4283 13.3137C36.514 13.3994 36.6232 13.4577 36.7422 13.4814C36.8612 13.5051 36.9845 13.4929 37.0964 13.4466C37.2083 13.4002 37.3041 13.3217 37.3715 13.2209C37.4388 13.1201 37.4747 13.0017 37.4747 12.8805C37.4747 12.7181 37.4102 12.5622 37.2953 12.4473C37.1803 12.3325 37.0244 12.2679 36.8618 12.2679ZM35.9357 11.4947C36.2098 11.3116 36.5321 11.2139 36.8618 11.2139C37.3038 11.2139 37.7278 11.3894 38.0405 11.702C38.3531 12.0145 38.5287 12.4385 38.5287 12.8805C38.5287 13.2102 38.431 13.5325 38.2478 13.8065C38.0646 14.0806 37.8043 14.2943 37.4997 14.4204C37.195 14.5466 36.8598 14.5794 36.5366 14.5152C36.2133 14.4509 35.9163 14.2923 35.6831 14.0591C35.45 13.826 35.2912 13.5291 35.2269 13.2057C35.1625 12.8824 35.1955 12.5472 35.3217 12.2426C35.4479 11.938 35.6616 11.6778 35.9357 11.4947Z" fill="#0042ED"/>
</g>
<path d="M55.2707 45.318L56.3572 39.0304C56.421 38.6618 56.4034 38.2838 56.3059 37.9228C56.2083 37.5617 56.033 37.2264 55.7923 36.9401C55.5515 36.6539 55.2512 36.4237 54.9122 36.2657C54.5732 36.1076 54.2038 36.0256 53.8298 36.0252H45.8454C45.659 36.0253 45.4749 35.9847 45.3058 35.9065C45.1367 35.8282 44.9867 35.714 44.8661 35.5719C44.7456 35.4298 44.6574 35.2632 44.6078 35.0836C44.5581 34.904 44.5482 34.7157 44.5786 34.5319L45.6003 28.2981C45.7661 27.286 45.7189 26.2504 45.4616 25.2576C45.3516 24.8473 45.1396 24.4716 44.8453 24.1652C44.5511 23.8589 44.1842 23.6319 43.7788 23.5053L43.5553 23.4329C43.0501 23.2706 42.5019 23.3081 42.0234 23.5377C41.4995 23.7904 41.1173 24.2512 40.9755 24.7983L40.2419 27.6247C40.0084 28.5241 39.669 29.3927 39.231 30.2122C38.5914 31.4096 37.602 32.3697 36.5726 33.2559L34.3549 35.1668C34.0473 35.4327 33.807 35.7676 33.6538 36.1443C33.5006 36.5209 33.4387 36.9285 33.4734 37.3336L34.7248 51.8092C34.78 52.4493 35.0731 53.0456 35.5465 53.4801C36.0198 53.9147 36.6389 54.1559 37.2815 54.1563H44.4445C49.8106 54.1563 54.3892 50.4175 55.2707 45.318Z" fill="#0042ED"/>
<path fill-rule="evenodd" clip-rule="evenodd" d="M28.6066 34.8694C28.9045 34.8564 29.1958 34.9589 29.4198 35.1556C29.6438 35.3524 29.7831 35.628 29.8087 35.925L31.3036 53.2408C31.3289 53.4987 31.3014 53.759 31.2227 54.0059C31.1441 54.2528 31.0159 54.481 30.8461 54.6767C30.6762 54.8724 30.4683 55.0314 30.235 55.144C30.0016 55.2566 29.7478 55.3205 29.4889 55.3317C29.2301 55.3429 28.9716 55.3013 28.7294 55.2093C28.4872 55.1173 28.2663 54.9768 28.0802 54.7966C27.894 54.6163 27.7466 54.4001 27.6469 54.1609C27.5471 53.9218 27.4972 53.6648 27.5001 53.4057V36.0237C27.5002 35.7258 27.6154 35.4394 27.8216 35.2243C28.0277 35.0093 28.309 34.8821 28.6066 34.8694Z" fill="#0042ED"/>
</svg>
