<svg width="56" height="20" viewBox="0 0 56 20" fill="none" xmlns="http://www.w3.org/2000/svg">
<rect width="56" height="20" rx="10" fill="#0144ED" fill-opacity="0.16"/>
<path d="M13.479 11.1997C13.4904 11.1359 13.5132 11.0789 13.5474 11.0288C13.5838 10.9787 13.6271 10.9377 13.6772 10.9058C13.7274 10.8716 13.7832 10.8488 13.8447 10.8374C13.9062 10.8237 13.9678 10.8237 14.0293 10.8374C14.0931 10.8511 14.1501 10.8761 14.2002 10.9126C14.2503 10.9468 14.2913 10.9889 14.3232 11.0391C14.3574 11.0869 14.3802 11.1416 14.3916 11.2031C14.4053 11.2624 14.4064 11.3228 14.395 11.3843C14.3221 11.7466 14.207 12.0679 14.0498 12.3481C13.8926 12.6284 13.6932 12.8643 13.4517 13.0557C13.2124 13.2471 12.9321 13.3929 12.6108 13.4932C12.2918 13.5911 11.9352 13.6401 11.541 13.6401C11.0169 13.6401 10.5589 13.5501 10.167 13.3701C9.77507 13.1878 9.44808 12.9383 9.18604 12.6216C8.92627 12.3049 8.73145 11.9323 8.60156 11.5039C8.47168 11.0732 8.40674 10.6095 8.40674 10.1128C8.40674 9.77783 8.4375 9.4554 8.49902 9.14551C8.56055 8.83561 8.65169 8.54736 8.77246 8.28076C8.89551 8.01188 9.04704 7.76807 9.22705 7.54932C9.40706 7.33057 9.61556 7.14372 9.85254 6.98877C10.0895 6.83382 10.355 6.71419 10.6489 6.62988C10.9429 6.54329 11.2642 6.5 11.6128 6.5C11.925 6.5 12.2212 6.5376 12.5015 6.61279C12.7817 6.68571 13.0369 6.79395 13.2671 6.9375C13.4995 7.08105 13.7012 7.25993 13.8721 7.47412C14.043 7.68604 14.1763 7.93099 14.272 8.20898C14.2925 8.27051 14.2993 8.33203 14.2925 8.39355C14.2879 8.45508 14.272 8.51318 14.2446 8.56787C14.2173 8.62028 14.1797 8.66699 14.1318 8.70801C14.0863 8.74902 14.0327 8.77979 13.9712 8.80029C13.9097 8.8208 13.847 8.82878 13.7832 8.82422C13.7217 8.81738 13.6636 8.80029 13.6089 8.77295C13.5565 8.74561 13.5098 8.70915 13.4688 8.66357C13.4277 8.61572 13.3981 8.56104 13.3799 8.49951C13.3184 8.30127 13.2318 8.12809 13.1201 7.97998C13.0085 7.83187 12.8752 7.70882 12.7202 7.61084C12.5675 7.51058 12.3955 7.43652 12.2041 7.38867C12.015 7.33854 11.8133 7.31348 11.5991 7.31348C11.3394 7.31348 11.1035 7.3488 10.8916 7.41943C10.682 7.48779 10.494 7.58464 10.3276 7.70996C10.1613 7.83529 10.0166 7.9834 9.89355 8.1543C9.77279 8.3252 9.67253 8.51204 9.59277 8.71484C9.51302 8.91536 9.45378 9.12842 9.41504 9.354C9.3763 9.57959 9.35693 9.80859 9.35693 10.041C9.35693 10.4238 9.40023 10.785 9.48682 11.1245C9.57568 11.4618 9.7124 11.758 9.89697 12.0132C10.0815 12.2684 10.3151 12.4701 10.5977 12.6182C10.8825 12.7663 11.2209 12.8403 11.6128 12.8403C11.8748 12.8403 12.1118 12.8005 12.3237 12.7207C12.5356 12.6387 12.7202 12.5247 12.8774 12.3789C13.0347 12.2331 13.1634 12.0599 13.2637 11.8594C13.3662 11.6589 13.438 11.439 13.479 11.1997ZM16.0938 11.022C16.0938 11.3228 16.1325 11.5871 16.21 11.8149C16.2874 12.0405 16.3934 12.2297 16.5278 12.3823C16.6623 12.535 16.8206 12.6501 17.0029 12.7275C17.1875 12.8027 17.3846 12.8403 17.5942 12.8403C17.7925 12.8403 17.9816 12.8027 18.1616 12.7275C18.3416 12.6501 18.4989 12.535 18.6333 12.3823C18.77 12.2297 18.8783 12.0405 18.958 11.8149C19.0378 11.5871 19.0776 11.3228 19.0776 11.022C19.0776 10.7326 19.0378 10.474 18.958 10.2461C18.8783 10.0182 18.77 9.82568 18.6333 9.66846C18.4989 9.51123 18.3416 9.3916 18.1616 9.30957C17.9816 9.22754 17.7925 9.18652 17.5942 9.18652C17.3846 9.18652 17.1875 9.22754 17.0029 9.30957C16.8206 9.3916 16.6623 9.51123 16.5278 9.66846C16.3934 9.82568 16.2874 10.0182 16.21 10.2461C16.1325 10.474 16.0938 10.7326 16.0938 11.022ZM15.1982 11.022C15.1982 10.6551 15.2484 10.3133 15.3486 9.99658C15.4512 9.67757 15.6027 9.40186 15.8032 9.16943C16.0037 8.93473 16.2533 8.7513 16.5518 8.61914C16.8503 8.4847 17.1978 8.41748 17.5942 8.41748C17.9862 8.41748 18.3302 8.4847 18.6265 8.61914C18.925 8.7513 19.1745 8.93473 19.375 9.16943C19.5778 9.40186 19.7305 9.67757 19.833 9.99658C19.9355 10.3133 19.9868 10.6551 19.9868 11.022C19.9868 11.382 19.9355 11.7204 19.833 12.0371C19.7305 12.3516 19.5778 12.6261 19.375 12.8608C19.1745 13.0933 18.925 13.2767 18.6265 13.4111C18.3302 13.5456 17.9862 13.6128 17.5942 13.6128C17.1978 13.6128 16.8503 13.5456 16.5518 13.4111C16.2533 13.2767 16.0037 13.0933 15.8032 12.8608C15.6027 12.6261 15.4512 12.3516 15.3486 12.0371C15.2484 11.7204 15.1982 11.382 15.1982 11.022ZM20.9062 8.88232C20.9062 8.81852 20.9165 8.76042 20.937 8.70801C20.9598 8.6556 20.9906 8.61117 21.0293 8.57471C21.068 8.53825 21.1125 8.5109 21.1626 8.49268C21.2127 8.47217 21.2674 8.46191 21.3267 8.46191C21.3836 8.46191 21.4372 8.47217 21.4873 8.49268C21.5397 8.51318 21.5853 8.54167 21.624 8.57812C21.6628 8.61458 21.6924 8.65902 21.7129 8.71143C21.7357 8.76156 21.7471 8.81852 21.7471 8.88232V9.21729C21.9271 8.93701 22.1424 8.73421 22.3931 8.60889C22.646 8.48128 22.9434 8.41748 23.2852 8.41748C23.431 8.41748 23.5745 8.43343 23.7158 8.46533C23.8571 8.49495 23.9881 8.54281 24.1089 8.60889C24.2297 8.67497 24.3368 8.75928 24.4302 8.86182C24.5259 8.96436 24.6022 9.0874 24.6592 9.23096C24.8392 8.94385 25.0522 8.73649 25.2983 8.60889C25.5467 8.48128 25.8281 8.41748 26.1426 8.41748C26.3955 8.41748 26.6234 8.44596 26.8262 8.50293C27.029 8.55762 27.2021 8.64535 27.3457 8.76611C27.4893 8.8846 27.5998 9.03613 27.6772 9.2207C27.7547 9.40527 27.7935 9.62744 27.7935 9.88721V13.1343C27.7935 13.2004 27.7821 13.2607 27.7593 13.3154C27.7365 13.3678 27.7046 13.4134 27.6636 13.4521C27.6248 13.4886 27.5793 13.5171 27.5269 13.5376C27.4744 13.5581 27.4186 13.5684 27.3594 13.5684C27.3001 13.5684 27.2432 13.5581 27.1885 13.5376C27.1361 13.5171 27.0905 13.4875 27.0518 13.4487C27.013 13.41 26.9823 13.3644 26.9595 13.312C26.9367 13.2596 26.9253 13.2004 26.9253 13.1343V10.2529C26.9253 10.1071 26.9128 9.96924 26.8877 9.83936C26.8649 9.70947 26.8205 9.59668 26.7544 9.50098C26.6883 9.40299 26.596 9.32666 26.4775 9.27197C26.359 9.21501 26.2052 9.18652 26.0161 9.18652C25.8247 9.18652 25.6527 9.21615 25.5 9.27539C25.3473 9.33236 25.2174 9.41439 25.1104 9.52148C25.0055 9.62858 24.9246 9.75846 24.8677 9.91113C24.813 10.0615 24.7856 10.2313 24.7856 10.4204V13.1343C24.7856 13.2004 24.7743 13.2607 24.7515 13.3154C24.7287 13.3678 24.6968 13.4134 24.6558 13.4521C24.617 13.4886 24.5715 13.5171 24.519 13.5376C24.4666 13.5581 24.4108 13.5684 24.3516 13.5684C24.2923 13.5684 24.2354 13.5581 24.1807 13.5376C24.1283 13.5171 24.0827 13.4875 24.0439 13.4487C24.0052 13.41 23.9744 13.3644 23.9517 13.312C23.9289 13.2596 23.9175 13.2004 23.9175 13.1343V10.2529C23.9175 10.1025 23.9049 9.9624 23.8799 9.83252C23.8548 9.70264 23.8092 9.58984 23.7432 9.49414C23.6794 9.39844 23.5916 9.32324 23.48 9.26855C23.3683 9.21387 23.2248 9.18652 23.0493 9.18652C22.8898 9.18652 22.7474 9.20817 22.6221 9.25146C22.499 9.29476 22.3896 9.35173 22.2939 9.42236C22.2005 9.493 22.1208 9.57275 22.0547 9.66162C21.9886 9.75049 21.9351 9.84049 21.894 9.93164C21.853 10.0228 21.8223 10.1117 21.8018 10.1982C21.7835 10.2826 21.7744 10.3566 21.7744 10.4204V13.1343C21.7744 13.2004 21.763 13.2607 21.7402 13.3154C21.7174 13.3678 21.6855 13.4134 21.6445 13.4521C21.6058 13.4886 21.5602 13.5171 21.5078 13.5376C21.4554 13.5581 21.3996 13.5684 21.3403 13.5684C21.2811 13.5684 21.2241 13.5581 21.1694 13.5376C21.117 13.5171 21.0715 13.4875 21.0327 13.4487C20.994 13.41 20.9632 13.3644 20.9404 13.312C20.9176 13.2596 20.9062 13.2004 20.9062 13.1343V8.88232ZM29 8.88232C29 8.81852 29.0103 8.76042 29.0308 8.70801C29.0535 8.6556 29.0843 8.61117 29.123 8.57471C29.1618 8.53825 29.2062 8.5109 29.2563 8.49268C29.3065 8.47217 29.3612 8.46191 29.4204 8.46191C29.4774 8.46191 29.5309 8.47217 29.5811 8.49268C29.6335 8.51318 29.679 8.54167 29.7178 8.57812C29.7565 8.61458 29.7861 8.65902 29.8066 8.71143C29.8294 8.76156 29.8408 8.81852 29.8408 8.88232V9.21729C30.0208 8.93701 30.2362 8.73421 30.4868 8.60889C30.7397 8.48128 31.0371 8.41748 31.3789 8.41748C31.5247 8.41748 31.6683 8.43343 31.8096 8.46533C31.9508 8.49495 32.0819 8.54281 32.2026 8.60889C32.3234 8.67497 32.4305 8.75928 32.5239 8.86182C32.6196 8.96436 32.696 9.0874 32.7529 9.23096C32.9329 8.94385 33.146 8.73649 33.3921 8.60889C33.6405 8.48128 33.9219 8.41748 34.2363 8.41748C34.4893 8.41748 34.7171 8.44596 34.9199 8.50293C35.1227 8.55762 35.2959 8.64535 35.4395 8.76611C35.583 8.8846 35.6935 9.03613 35.771 9.2207C35.8485 9.40527 35.8872 9.62744 35.8872 9.88721V13.1343C35.8872 13.2004 35.8758 13.2607 35.853 13.3154C35.8302 13.3678 35.7983 13.4134 35.7573 13.4521C35.7186 13.4886 35.673 13.5171 35.6206 13.5376C35.5682 13.5581 35.5124 13.5684 35.4531 13.5684C35.3939 13.5684 35.3369 13.5581 35.2822 13.5376C35.2298 13.5171 35.1842 13.4875 35.1455 13.4487C35.1068 13.41 35.076 13.3644 35.0532 13.312C35.0304 13.2596 35.019 13.2004 35.019 13.1343V10.2529C35.019 10.1071 35.0065 9.96924 34.9814 9.83936C34.9587 9.70947 34.9142 9.59668 34.8481 9.50098C34.7821 9.40299 34.6898 9.32666 34.5713 9.27197C34.4528 9.21501 34.299 9.18652 34.1099 9.18652C33.9185 9.18652 33.7464 9.21615 33.5938 9.27539C33.4411 9.33236 33.3112 9.41439 33.2041 9.52148C33.0993 9.62858 33.0184 9.75846 32.9614 9.91113C32.9067 10.0615 32.8794 10.2313 32.8794 10.4204V13.1343C32.8794 13.2004 32.868 13.2607 32.8452 13.3154C32.8224 13.3678 32.7905 13.4134 32.7495 13.4521C32.7108 13.4886 32.6652 13.5171 32.6128 13.5376C32.5604 13.5581 32.5046 13.5684 32.4453 13.5684C32.3861 13.5684 32.3291 13.5581 32.2744 13.5376C32.222 13.5171 32.1764 13.4875 32.1377 13.4487C32.099 13.41 32.0682 13.3644 32.0454 13.312C32.0226 13.2596 32.0112 13.2004 32.0112 13.1343V10.2529C32.0112 10.1025 31.9987 9.9624 31.9736 9.83252C31.9486 9.70264 31.903 9.58984 31.8369 9.49414C31.7731 9.39844 31.6854 9.32324 31.5737 9.26855C31.4621 9.21387 31.3185 9.18652 31.1431 9.18652C30.9836 9.18652 30.8411 9.20817 30.7158 9.25146C30.5928 9.29476 30.4834 9.35173 30.3877 9.42236C30.2943 9.493 30.2145 9.57275 30.1484 9.66162C30.0824 9.75049 30.0288 9.84049 29.9878 9.93164C29.9468 10.0228 29.916 10.1117 29.8955 10.1982C29.8773 10.2826 29.8682 10.3566 29.8682 10.4204V13.1343C29.8682 13.2004 29.8568 13.2607 29.834 13.3154C29.8112 13.3678 29.7793 13.4134 29.7383 13.4521C29.6995 13.4886 29.654 13.5171 29.6016 13.5376C29.5492 13.5581 29.4933 13.5684 29.4341 13.5684C29.3748 13.5684 29.3179 13.5581 29.2632 13.5376C29.2108 13.5171 29.1652 13.4875 29.1265 13.4487C29.0877 13.41 29.057 13.3644 29.0342 13.312C29.0114 13.2596 29 13.2004 29 13.1343V8.88232ZM37.7227 11.022C37.7227 11.3228 37.7614 11.5871 37.8389 11.8149C37.9163 12.0405 38.0223 12.2297 38.1567 12.3823C38.2912 12.535 38.4495 12.6501 38.6318 12.7275C38.8164 12.8027 39.0135 12.8403 39.2231 12.8403C39.4214 12.8403 39.6105 12.8027 39.7905 12.7275C39.9705 12.6501 40.1278 12.535 40.2622 12.3823C40.3989 12.2297 40.5072 12.0405 40.5869 11.8149C40.6667 11.5871 40.7065 11.3228 40.7065 11.022C40.7065 10.7326 40.6667 10.474 40.5869 10.2461C40.5072 10.0182 40.3989 9.82568 40.2622 9.66846C40.1278 9.51123 39.9705 9.3916 39.7905 9.30957C39.6105 9.22754 39.4214 9.18652 39.2231 9.18652C39.0135 9.18652 38.8164 9.22754 38.6318 9.30957C38.4495 9.3916 38.2912 9.51123 38.1567 9.66846C38.0223 9.82568 37.9163 10.0182 37.8389 10.2461C37.7614 10.474 37.7227 10.7326 37.7227 11.022ZM36.8271 11.022C36.8271 10.6551 36.8773 10.3133 36.9775 9.99658C37.0801 9.67757 37.2316 9.40186 37.4321 9.16943C37.6326 8.93473 37.8822 8.7513 38.1807 8.61914C38.4792 8.4847 38.8267 8.41748 39.2231 8.41748C39.6151 8.41748 39.9591 8.4847 40.2554 8.61914C40.5539 8.7513 40.8034 8.93473 41.0039 9.16943C41.2067 9.40186 41.3594 9.67757 41.4619 9.99658C41.5645 10.3133 41.6157 10.6551 41.6157 11.022C41.6157 11.382 41.5645 11.7204 41.4619 12.0371C41.3594 12.3516 41.2067 12.6261 41.0039 12.8608C40.8034 13.0933 40.5539 13.2767 40.2554 13.4111C39.9591 13.5456 39.6151 13.6128 39.2231 13.6128C38.8267 13.6128 38.4792 13.5456 38.1807 13.4111C37.8822 13.2767 37.6326 13.0933 37.4321 12.8608C37.2316 12.6261 37.0801 12.3516 36.9775 12.0371C36.8773 11.7204 36.8271 11.382 36.8271 11.022ZM42.5352 8.88232C42.5352 8.81852 42.5454 8.76042 42.5659 8.70801C42.5887 8.6556 42.6195 8.61117 42.6582 8.57471C42.6969 8.53825 42.7414 8.5109 42.7915 8.49268C42.8416 8.47217 42.8963 8.46191 42.9556 8.46191C43.0125 8.46191 43.0661 8.47217 43.1162 8.49268C43.1686 8.51318 43.2142 8.54167 43.2529 8.57812C43.2917 8.61458 43.3213 8.65902 43.3418 8.71143C43.3646 8.76156 43.376 8.81852 43.376 8.88232V9.27197C43.5446 8.98258 43.7554 8.76839 44.0083 8.62939C44.2635 8.48812 44.5711 8.41748 44.9312 8.41748C45.2638 8.41748 45.5384 8.46305 45.7549 8.5542C45.9736 8.64307 46.1468 8.76725 46.2744 8.92676C46.4043 9.08398 46.4943 9.27083 46.5444 9.4873C46.5968 9.70378 46.623 9.93962 46.623 10.1948V13.1343C46.623 13.2004 46.6117 13.2607 46.5889 13.3154C46.5661 13.3678 46.5342 13.4134 46.4932 13.4521C46.4544 13.4886 46.4089 13.5171 46.3564 13.5376C46.304 13.5581 46.2482 13.5684 46.189 13.5684C46.1297 13.5684 46.0728 13.5581 46.0181 13.5376C45.9657 13.5171 45.9201 13.4875 45.8813 13.4487C45.8426 13.41 45.8118 13.3644 45.7891 13.312C45.7663 13.2596 45.7549 13.2004 45.7549 13.1343V10.1948C45.7549 9.85075 45.6729 9.59668 45.5088 9.43262C45.347 9.26855 45.1123 9.18652 44.8047 9.18652C44.57 9.18652 44.3649 9.2264 44.1895 9.30615C44.014 9.38363 43.8682 9.49072 43.752 9.62744C43.6357 9.76188 43.548 9.92025 43.4888 10.1025C43.4318 10.2848 43.4033 10.4797 43.4033 10.687V13.1343C43.4033 13.2004 43.3919 13.2607 43.3691 13.3154C43.3464 13.3678 43.3145 13.4134 43.2734 13.4521C43.2347 13.4886 43.1891 13.5171 43.1367 13.5376C43.0843 13.5581 43.0285 13.5684 42.9692 13.5684C42.91 13.5684 42.853 13.5581 42.7983 13.5376C42.7459 13.5171 42.7004 13.4875 42.6616 13.4487C42.6229 13.41 42.5921 13.3644 42.5693 13.312C42.5465 13.2596 42.5352 13.2004 42.5352 13.1343V8.88232Z" fill="#0042ED"/>
</svg>
