<svg width="56" height="20" viewBox="0 0 56 20" fill="none" xmlns="http://www.w3.org/2000/svg">
<rect width="56" height="20" rx="10" fill="#EE183E" fill-opacity="0.16"/>
<path d="M8.12988 13C8.06852 13 8.01034 12.9894 7.95532 12.9683C7.90243 12.9471 7.85588 12.9175 7.81567 12.8794C7.77759 12.8392 7.74691 12.7916 7.72363 12.7366C7.70036 12.6816 7.68872 12.6213 7.68872 12.5557V7.03638C7.68872 6.97078 7.70036 6.91048 7.72363 6.85547C7.74691 6.80046 7.77759 6.75391 7.81567 6.71582C7.85588 6.67562 7.90243 6.64494 7.95532 6.62378C8.01034 6.60262 8.06852 6.59204 8.12988 6.59204C8.19124 6.59204 8.24837 6.60262 8.30127 6.62378C8.35628 6.64494 8.40389 6.67562 8.44409 6.71582C8.48429 6.75391 8.51603 6.80046 8.53931 6.85547C8.56258 6.91048 8.57422 6.97078 8.57422 7.03638V12.2446H11.4719C11.5862 12.2446 11.6772 12.2817 11.7449 12.3557C11.8147 12.4277 11.8496 12.5165 11.8496 12.6223C11.8496 12.7281 11.8147 12.818 11.7449 12.8921C11.6772 12.964 11.5862 13 11.4719 13H8.12988ZM14.2681 8.99463C14.0798 8.99463 13.9094 9.02743 13.7571 9.09302C13.6069 9.15861 13.4767 9.24748 13.3667 9.35962C13.2588 9.47176 13.172 9.60295 13.1064 9.75317C13.043 9.9034 13.0049 10.0632 12.9922 10.2324H15.5408C15.5408 10.0441 15.5111 9.87378 15.4519 9.72144C15.3927 9.56909 15.308 9.43896 15.198 9.33105C15.088 9.22314 14.9536 9.14062 14.7949 9.0835C14.6383 9.02425 14.4627 8.99463 14.2681 8.99463ZM12.9922 10.9338C12.9922 11.1327 13.0197 11.32 13.0747 11.4956C13.1318 11.6712 13.2175 11.8257 13.3318 11.959C13.4482 12.0902 13.5931 12.1949 13.7666 12.2732C13.9422 12.3494 14.1485 12.3875 14.3855 12.3875C14.6394 12.3875 14.8616 12.3324 15.052 12.2224C15.2445 12.1103 15.3874 11.9336 15.4805 11.6924C15.5228 11.5845 15.5884 11.5104 15.6772 11.4702C15.7682 11.43 15.8645 11.429 15.9661 11.467C16.0168 11.4861 16.0602 11.5136 16.0962 11.5496C16.1343 11.5834 16.1628 11.6226 16.1819 11.667C16.203 11.7114 16.2147 11.759 16.2168 11.8098C16.2189 11.8585 16.2104 11.9082 16.1914 11.959C16.1152 12.1473 16.0179 12.3134 15.8994 12.4573C15.7809 12.599 15.6434 12.7186 15.4868 12.8159C15.3302 12.9111 15.1567 12.9831 14.9663 13.0317C14.778 13.0804 14.5759 13.1047 14.3601 13.1047C13.9919 13.1047 13.6724 13.0444 13.4016 12.9238C13.1308 12.8032 12.9044 12.635 12.7224 12.4192C12.5426 12.2034 12.4061 11.9473 12.313 11.6511C12.222 11.3528 12.1712 11.0269 12.1606 10.6736C12.1606 10.3287 12.2125 10.0103 12.3162 9.71826C12.4198 9.42627 12.5658 9.17448 12.7542 8.96289C12.9446 8.74919 13.171 8.58203 13.4333 8.46143C13.6978 8.34082 13.9888 8.28052 14.3062 8.28052C14.5516 8.28052 14.7738 8.3112 14.9727 8.37256C15.1715 8.4318 15.3472 8.51432 15.4995 8.62012C15.654 8.72591 15.7862 8.85075 15.8962 8.99463C16.0084 9.13851 16.0994 9.29508 16.1692 9.46436C16.2411 9.63363 16.294 9.81136 16.3279 9.99756C16.3617 10.1816 16.3787 10.3678 16.3787 10.5562C16.3787 10.609 16.3681 10.6588 16.3469 10.7053C16.3279 10.7498 16.3004 10.7889 16.2644 10.8228C16.2306 10.8566 16.1893 10.8841 16.1406 10.9053C16.0941 10.9243 16.0444 10.9338 15.9915 10.9338H12.9922ZM18.978 12.3367C19.1431 12.3367 19.2901 12.3134 19.4192 12.2668C19.5483 12.2203 19.6615 12.1558 19.7588 12.0732C19.8582 11.9907 19.9418 11.8944 20.0095 11.7844C20.0793 11.6723 20.1354 11.5527 20.1777 11.4258C20.2201 11.2967 20.2507 11.1634 20.2698 11.0259C20.2909 10.8862 20.3015 10.7466 20.3015 10.6069C20.3015 10.4779 20.292 10.3488 20.2729 10.2197C20.2539 10.0885 20.2232 9.9637 20.1809 9.84521C20.1386 9.72461 20.0836 9.61247 20.0159 9.50879C19.9503 9.40511 19.8709 9.31519 19.7778 9.23901C19.6847 9.16284 19.5768 9.1036 19.4541 9.06128C19.3335 9.01685 19.196 8.99463 19.0415 8.99463C18.8045 8.99463 18.6025 9.03906 18.4353 9.12793C18.2681 9.2168 18.1317 9.3374 18.0259 9.48975C17.9222 9.63997 17.846 9.81453 17.7974 10.0134C17.7508 10.2102 17.7275 10.4176 17.7275 10.6355C17.7275 10.8365 17.7476 11.0386 17.7878 11.2417C17.8302 11.4427 17.9 11.6247 17.9973 11.7876C18.0946 11.9505 18.2227 12.0828 18.3813 12.1843C18.5422 12.2859 18.741 12.3367 18.978 12.3367ZM17.9148 13.6379C17.9529 13.7353 18.0121 13.8188 18.0925 13.8887C18.1729 13.9606 18.2639 14.0188 18.3655 14.0632C18.467 14.1098 18.5739 14.1436 18.686 14.1648C18.8003 14.186 18.9103 14.1965 19.0161 14.1965C19.2573 14.1965 19.4615 14.1542 19.6287 14.0696C19.7979 13.9871 19.9355 13.8707 20.0413 13.7205C20.1471 13.5723 20.2232 13.3946 20.2698 13.1873C20.3184 12.9799 20.3428 12.7524 20.3428 12.5049V12.2605C20.2751 12.3875 20.1894 12.4996 20.0857 12.5969C19.9841 12.6921 19.8709 12.7725 19.7461 12.8381C19.6234 12.9037 19.4922 12.9535 19.3525 12.9873C19.215 13.0212 19.0764 13.0381 18.9368 13.0381C18.5961 13.0381 18.2978 12.9767 18.0417 12.854C17.7857 12.7292 17.5731 12.561 17.4038 12.3494C17.2345 12.1357 17.1076 11.8881 17.0229 11.6067C16.9383 11.3253 16.896 11.0269 16.896 10.7117C16.896 10.5318 16.9108 10.3467 16.9404 10.1562C16.9701 9.96582 17.0187 9.78068 17.0864 9.60083C17.1541 9.42098 17.2419 9.25171 17.3499 9.09302C17.4599 8.93221 17.5932 8.7915 17.7498 8.6709C17.9063 8.55029 18.0894 8.45508 18.2988 8.38525C18.5083 8.31543 18.7474 8.28052 19.0161 8.28052C19.2912 8.28052 19.543 8.34294 19.7715 8.46777C20.0021 8.59049 20.1925 8.76611 20.3428 8.99463V8.69946C20.3428 8.64233 20.3523 8.59155 20.3713 8.54712C20.3925 8.50057 20.42 8.46037 20.4539 8.42651C20.4877 8.39266 20.5269 8.36727 20.5713 8.35034C20.6178 8.3313 20.6665 8.32178 20.7173 8.32178C20.7702 8.32178 20.8188 8.3313 20.8633 8.35034C20.9098 8.36727 20.95 8.39266 20.9839 8.42651C21.0177 8.45825 21.0442 8.4974 21.0632 8.54395C21.0844 8.59049 21.095 8.64233 21.095 8.69946V12.5842C21.095 12.9609 21.0527 13.2909 20.968 13.5745C20.8834 13.8601 20.7533 14.0981 20.5776 14.2886C20.402 14.479 20.1788 14.6218 19.908 14.717C19.6392 14.8123 19.3197 14.8599 18.9495 14.8599C18.7781 14.8599 18.6025 14.8419 18.4226 14.8059C18.2449 14.7721 18.0756 14.7181 17.9148 14.644C17.7561 14.57 17.6112 14.4748 17.48 14.3584C17.3509 14.242 17.2504 14.1024 17.1785 13.9395C17.1573 13.8887 17.1467 13.8368 17.1467 13.7839C17.1488 13.731 17.1594 13.6813 17.1785 13.6348C17.1975 13.5882 17.225 13.5459 17.261 13.5078C17.2991 13.4697 17.3435 13.4401 17.3943 13.4189C17.4451 13.3978 17.4969 13.3872 17.5498 13.3872C17.6027 13.3893 17.6524 13.3999 17.699 13.4189C17.7476 13.4401 17.79 13.4687 17.8259 13.5046C17.864 13.5427 17.8936 13.5872 17.9148 13.6379ZM24.0688 8.99463C23.8805 8.99463 23.7102 9.02743 23.5579 9.09302C23.4076 9.15861 23.2775 9.24748 23.1675 9.35962C23.0596 9.47176 22.9728 9.60295 22.9072 9.75317C22.8438 9.9034 22.8057 10.0632 22.793 10.2324H25.3416C25.3416 10.0441 25.3119 9.87378 25.2527 9.72144C25.1934 9.56909 25.1088 9.43896 24.9988 9.33105C24.8888 9.22314 24.7544 9.14062 24.5957 9.0835C24.4391 9.02425 24.2635 8.99463 24.0688 8.99463ZM22.793 10.9338C22.793 11.1327 22.8205 11.32 22.8755 11.4956C22.9326 11.6712 23.0183 11.8257 23.1326 11.959C23.2489 12.0902 23.3939 12.1949 23.5674 12.2732C23.743 12.3494 23.9493 12.3875 24.1863 12.3875C24.4402 12.3875 24.6624 12.3324 24.8528 12.2224C25.0453 12.1103 25.1882 11.9336 25.2812 11.6924C25.3236 11.5845 25.3892 11.5104 25.478 11.4702C25.569 11.43 25.6653 11.429 25.7668 11.467C25.8176 11.4861 25.861 11.5136 25.897 11.5496C25.9351 11.5834 25.9636 11.6226 25.9827 11.667C26.0038 11.7114 26.0155 11.759 26.0176 11.8098C26.0197 11.8585 26.0112 11.9082 25.9922 11.959C25.916 12.1473 25.8187 12.3134 25.7002 12.4573C25.5817 12.599 25.4442 12.7186 25.2876 12.8159C25.131 12.9111 24.9575 12.9831 24.7671 13.0317C24.5788 13.0804 24.3767 13.1047 24.1609 13.1047C23.7927 13.1047 23.4732 13.0444 23.2024 12.9238C22.9316 12.8032 22.7052 12.635 22.5232 12.4192C22.3433 12.2034 22.2069 11.9473 22.1138 11.6511C22.0228 11.3528 21.972 11.0269 21.9614 10.6736C21.9614 10.3287 22.0133 10.0103 22.1169 9.71826C22.2206 9.42627 22.3666 9.17448 22.5549 8.96289C22.7454 8.74919 22.9718 8.58203 23.2341 8.46143C23.4986 8.34082 23.7896 8.28052 24.1069 8.28052C24.3524 8.28052 24.5745 8.3112 24.7734 8.37256C24.9723 8.4318 25.1479 8.51432 25.3003 8.62012C25.4548 8.72591 25.587 8.85075 25.697 8.99463C25.8092 9.13851 25.9001 9.29508 25.97 9.46436C26.0419 9.63363 26.0948 9.81136 26.1287 9.99756C26.1625 10.1816 26.1794 10.3678 26.1794 10.5562C26.1794 10.609 26.1689 10.6588 26.1477 10.7053C26.1287 10.7498 26.1012 10.7889 26.0652 10.8228C26.0313 10.8566 25.9901 10.8841 25.9414 10.9053C25.8949 10.9243 25.8451 10.9338 25.7922 10.9338H22.793ZM26.9443 8.71216C26.9443 8.65291 26.9539 8.59896 26.9729 8.55029C26.9941 8.50163 27.0226 8.46037 27.0586 8.42651C27.0946 8.39266 27.1358 8.36727 27.1824 8.35034C27.2289 8.3313 27.2797 8.32178 27.3347 8.32178C27.3876 8.32178 27.4373 8.3313 27.4839 8.35034C27.5326 8.36938 27.5749 8.39583 27.6108 8.42969C27.6468 8.46354 27.6743 8.5048 27.6934 8.55347C27.7145 8.60002 27.7251 8.65291 27.7251 8.71216V9.07397C27.8817 8.80526 28.0774 8.60636 28.3123 8.47729C28.5492 8.34611 28.8349 8.28052 29.1692 8.28052C29.4781 8.28052 29.7331 8.32284 29.9341 8.40747C30.1372 8.48999 30.298 8.60531 30.4165 8.75342C30.5371 8.89941 30.6207 9.07292 30.6672 9.27393C30.7159 9.47493 30.7402 9.69393 30.7402 9.93091V12.6604C30.7402 12.7218 30.7297 12.7778 30.7085 12.8286C30.6873 12.8773 30.6577 12.9196 30.6196 12.9556C30.5837 12.9894 30.5413 13.0159 30.4927 13.0349C30.444 13.054 30.3922 13.0635 30.3372 13.0635C30.2821 13.0635 30.2292 13.054 30.1785 13.0349C30.1298 13.0159 30.0875 12.9884 30.0515 12.9524C30.0155 12.9164 29.987 12.8741 29.9658 12.8254C29.9447 12.7768 29.9341 12.7218 29.9341 12.6604V9.93091C29.9341 9.61141 29.8579 9.37549 29.7056 9.22314C29.5553 9.0708 29.3374 8.99463 29.0518 8.99463C28.8338 8.99463 28.6434 9.03166 28.4805 9.10571C28.3175 9.17765 28.1821 9.2771 28.0742 9.40405C27.9663 9.52889 27.8848 9.67594 27.8298 9.84521C27.7769 10.0145 27.7505 10.1954 27.7505 10.3879V12.6604C27.7505 12.7218 27.7399 12.7778 27.7188 12.8286C27.6976 12.8773 27.668 12.9196 27.6299 12.9556C27.5939 12.9894 27.5516 13.0159 27.5029 13.0349C27.4543 13.054 27.4024 13.0635 27.3474 13.0635C27.2924 13.0635 27.2395 13.054 27.1887 13.0349C27.1401 13.0159 27.0977 12.9884 27.0618 12.9524C27.0258 12.9164 26.9972 12.8741 26.9761 12.8254C26.9549 12.7768 26.9443 12.7218 26.9443 12.6604V8.71216ZM32.4668 10.6799C32.4668 10.9 32.488 11.1126 32.5303 11.3179C32.5726 11.5231 32.6445 11.7051 32.7461 11.8638C32.8477 12.0225 32.982 12.1494 33.1492 12.2446C33.3184 12.3398 33.529 12.3875 33.7808 12.3875C34.0368 12.3875 34.2537 12.3409 34.4314 12.2478C34.6112 12.1526 34.7562 12.0267 34.8662 11.8701C34.9784 11.7114 35.0588 11.5295 35.1074 11.3242C35.1582 11.119 35.1836 10.9063 35.1836 10.6863C35.1836 10.481 35.1593 10.2779 35.1106 10.0769C35.064 9.8759 34.9868 9.69499 34.8789 9.53418C34.771 9.37337 34.6313 9.24325 34.46 9.1438C34.2886 9.04435 34.0791 8.99463 33.8315 8.99463C33.5882 8.99463 33.3798 9.04435 33.2063 9.1438C33.0349 9.24113 32.8942 9.3702 32.7842 9.53101C32.6742 9.6897 32.5938 9.86955 32.543 10.0706C32.4922 10.2716 32.4668 10.4747 32.4668 10.6799ZM35.9517 12.6604C35.9517 12.7218 35.9411 12.7768 35.9199 12.8254C35.8988 12.8741 35.8691 12.9164 35.8311 12.9524C35.7951 12.9884 35.7528 13.0159 35.7041 13.0349C35.6554 13.054 35.6036 13.0635 35.5486 13.0635C35.4936 13.0635 35.4407 13.054 35.3899 13.0349C35.3412 13.0159 35.2989 12.9894 35.2629 12.9556C35.227 12.9196 35.1984 12.8773 35.1772 12.8286C35.1561 12.7778 35.1455 12.7218 35.1455 12.6604V12.4414C35.0545 12.5726 34.9487 12.6805 34.8281 12.7651C34.7075 12.8498 34.5816 12.9175 34.4504 12.9683C34.3214 13.019 34.1912 13.054 34.0601 13.073C33.931 13.0942 33.8114 13.1047 33.7014 13.1047C33.3544 13.1047 33.0497 13.0423 32.7874 12.9175C32.5271 12.7905 32.3092 12.6181 32.1335 12.4001C31.96 12.1822 31.8289 11.9272 31.74 11.6353C31.6532 11.3433 31.6099 11.0312 31.6099 10.699C31.6099 10.4895 31.6289 10.2843 31.667 10.0833C31.7072 9.88224 31.7664 9.69181 31.8447 9.51196C31.9251 9.33211 32.0246 9.16707 32.1431 9.01685C32.2616 8.86662 32.3991 8.73755 32.5557 8.62964C32.7122 8.51961 32.8879 8.43392 33.0825 8.37256C33.2772 8.3112 33.4919 8.28052 33.7268 8.28052C33.8643 8.28052 34.0008 8.29639 34.1362 8.32812C34.2738 8.35775 34.4039 8.40218 34.5266 8.46143C34.6514 8.51855 34.7668 8.59049 34.8726 8.67725C34.9784 8.76188 35.0693 8.85921 35.1455 8.96924V6.99512C35.1455 6.93376 35.1561 6.87874 35.1772 6.83008C35.1984 6.7793 35.227 6.73698 35.2629 6.70312C35.2989 6.66715 35.3412 6.63965 35.3899 6.62061C35.4407 6.60156 35.4936 6.59204 35.5486 6.59204C35.6036 6.59204 35.6554 6.60156 35.7041 6.62061C35.7528 6.63965 35.7951 6.66715 35.8311 6.70312C35.8691 6.7391 35.8988 6.78247 35.9199 6.83325C35.9411 6.88192 35.9517 6.93587 35.9517 6.99512V12.6604ZM38.5193 12.3875C38.7605 12.3875 38.9657 12.3547 39.135 12.2891C39.3043 12.2235 39.4418 12.142 39.5476 12.0447C39.6555 11.9452 39.7338 11.8373 39.7825 11.7209C39.8333 11.6025 39.8586 11.4914 39.8586 11.3877V10.6355C39.7931 10.6799 39.7116 10.717 39.6143 10.7466C39.5169 10.7741 39.4101 10.7984 39.2937 10.8196C39.1794 10.8407 39.0588 10.8608 38.9319 10.8799C38.807 10.8989 38.6843 10.9222 38.5637 10.9497C38.4431 10.9751 38.3278 11.0079 38.2178 11.0481C38.1077 11.0883 38.0115 11.1391 37.929 11.2004C37.8464 11.2618 37.7808 11.338 37.7322 11.429C37.6835 11.5178 37.6592 11.6257 37.6592 11.7527C37.6592 11.8733 37.6825 11.9738 37.729 12.0542C37.7756 12.1346 37.838 12.2002 37.9163 12.251C37.9967 12.2996 38.0887 12.3346 38.1924 12.3557C38.2961 12.3769 38.405 12.3875 38.5193 12.3875ZM41.1472 12.6191C41.1663 12.7122 41.162 12.7905 41.1345 12.854C41.107 12.9154 41.0647 12.964 41.0076 13C40.9504 13.0381 40.8827 13.0645 40.8044 13.0793C40.7283 13.0963 40.651 13.1047 40.5728 13.1047C40.4775 13.1047 40.3897 13.0899 40.3093 13.0603C40.2289 13.0307 40.1591 12.9862 40.0999 12.927C40.0406 12.8678 39.9941 12.7937 39.9602 12.7048C39.9264 12.6139 39.9094 12.5081 39.9094 12.3875C39.8206 12.5081 39.7179 12.6139 39.6016 12.7048C39.4873 12.7937 39.3625 12.8678 39.2271 12.927C39.0916 12.9862 38.9499 13.0307 38.8018 13.0603C38.6536 13.0899 38.5034 13.1047 38.3511 13.1047C38.1416 13.1047 37.9448 13.0804 37.7607 13.0317C37.5767 12.9852 37.4148 12.9101 37.2751 12.8064C37.1376 12.7006 37.0286 12.5662 36.9482 12.4033C36.8678 12.2383 36.8276 12.0383 36.8276 11.8035C36.8276 11.6257 36.8477 11.4713 36.8879 11.3401C36.9281 11.2089 36.9832 11.0957 37.053 11.0005C37.1228 10.9053 37.2053 10.8259 37.3005 10.7625C37.3979 10.6969 37.5026 10.6418 37.6147 10.5974C37.7269 10.553 37.8454 10.516 37.9702 10.4863C38.0951 10.4546 38.222 10.426 38.3511 10.4006C38.4442 10.3816 38.5457 10.3636 38.6558 10.3467C38.7679 10.3298 38.879 10.3118 38.989 10.2927C39.1012 10.2716 39.2091 10.2472 39.3127 10.2197C39.4185 10.1922 39.5116 10.1573 39.592 10.115C39.6724 10.0727 39.737 10.0208 39.7856 9.95947C39.8343 9.89811 39.8586 9.82406 39.8586 9.7373C39.8586 9.57861 39.829 9.4506 39.7698 9.35327C39.7126 9.25594 39.6375 9.18083 39.5444 9.12793C39.4535 9.07503 39.3487 9.04012 39.2302 9.02319C39.1139 9.00415 38.9975 8.99463 38.8811 8.99463C38.7499 8.99463 38.6261 9.00415 38.5098 9.02319C38.3955 9.04224 38.2929 9.07609 38.2019 9.12476C38.113 9.17131 38.0369 9.23478 37.9734 9.31519C37.9099 9.39347 37.8644 9.49292 37.8369 9.61353C37.8242 9.66854 37.802 9.7172 37.7703 9.75952C37.7406 9.80184 37.7047 9.83781 37.6624 9.86743C37.62 9.89494 37.5724 9.91398 37.5195 9.92456C37.4666 9.93514 37.4137 9.93514 37.3608 9.92456C37.3058 9.91187 37.2572 9.89071 37.2148 9.86108C37.1725 9.82935 37.1366 9.79232 37.1069 9.75C37.0794 9.70557 37.0604 9.65796 37.0498 9.60718C37.0392 9.55428 37.0403 9.50138 37.053 9.44849C37.0995 9.2369 37.182 9.05705 37.3005 8.90894C37.4211 8.76082 37.5661 8.64022 37.7354 8.54712C37.9046 8.45402 38.0929 8.38631 38.3003 8.34399C38.5076 8.30168 38.7235 8.28052 38.9478 8.28052C39.0832 8.28052 39.2196 8.28687 39.3572 8.29956C39.4968 8.31226 39.6301 8.33659 39.7571 8.37256C39.884 8.40641 40.0025 8.45402 40.1125 8.51538C40.2226 8.57674 40.3188 8.65503 40.4014 8.75024C40.4839 8.84546 40.5484 8.96077 40.595 9.09619C40.6415 9.22949 40.6648 9.38713 40.6648 9.56909V11.9082C40.6648 11.9928 40.6648 12.0637 40.6648 12.1208C40.6669 12.178 40.6733 12.2245 40.6838 12.2605C40.6965 12.2965 40.7166 12.324 40.7441 12.343C40.7738 12.3599 40.8161 12.3705 40.8711 12.3748C41.0234 12.3875 41.1155 12.4689 41.1472 12.6191ZM43.7625 8.31543C43.8196 8.30697 43.8746 8.30908 43.9275 8.32178C43.9825 8.33447 44.0322 8.35669 44.0767 8.38843C44.1211 8.41805 44.1581 8.45614 44.1877 8.50269C44.2195 8.54924 44.2406 8.60107 44.2512 8.6582C44.2597 8.71533 44.2576 8.7714 44.2449 8.82642C44.2322 8.87931 44.21 8.92798 44.1782 8.97241C44.1465 9.01685 44.1073 9.05493 44.0608 9.08667C44.0142 9.11629 43.9624 9.13534 43.9053 9.1438C43.6641 9.17342 43.4609 9.23478 43.2959 9.32788C43.1309 9.42098 42.9976 9.54476 42.896 9.69922C42.7965 9.85156 42.7246 10.0325 42.6802 10.2419C42.6379 10.4514 42.6167 10.6863 42.6167 10.9465V12.6604C42.6167 12.7218 42.6061 12.7778 42.585 12.8286C42.5638 12.8773 42.5342 12.9196 42.4961 12.9556C42.4601 12.9894 42.4178 13.0159 42.3691 13.0349C42.3205 13.054 42.2686 13.0635 42.2136 13.0635C42.1586 13.0635 42.1057 13.054 42.0549 13.0349C42.0063 13.0159 41.9639 12.9884 41.928 12.9524C41.892 12.9164 41.8634 12.8741 41.8423 12.8254C41.8211 12.7768 41.8105 12.7218 41.8105 12.6604V8.71216C41.8105 8.65291 41.8201 8.59896 41.8391 8.55029C41.8603 8.50163 41.8888 8.46037 41.9248 8.42651C41.9608 8.39266 42.002 8.36727 42.0486 8.35034C42.0951 8.3313 42.1459 8.32178 42.2009 8.32178C42.2538 8.32178 42.3035 8.3313 42.3501 8.35034C42.3988 8.36938 42.4411 8.39583 42.4771 8.42969C42.513 8.46354 42.5405 8.5048 42.5596 8.55347C42.5807 8.60002 42.5913 8.65291 42.5913 8.71216V9.25488C42.7331 8.98617 42.896 8.77352 43.0801 8.61694C43.2642 8.46037 43.4916 8.35986 43.7625 8.31543ZM45.3018 14.8186C45.2362 14.8186 45.1653 14.8133 45.0891 14.8027C45.0129 14.7943 44.9421 14.7752 44.8765 14.7456C44.8109 14.7181 44.758 14.6768 44.7178 14.6218C44.6776 14.5689 44.6617 14.497 44.6702 14.406C44.6744 14.3552 44.685 14.3076 44.7019 14.2632C44.7209 14.2209 44.7463 14.1838 44.7781 14.1521C44.8119 14.1225 44.8521 14.1003 44.8987 14.0854C44.9452 14.0728 44.9992 14.0706 45.0605 14.0791C45.0881 14.0833 45.1134 14.0865 45.1367 14.0886C45.1621 14.0907 45.1864 14.0918 45.2097 14.0918C45.3472 14.0918 45.4679 14.059 45.5715 13.9934C45.6773 13.9299 45.7556 13.8326 45.8064 13.7014L46.1079 12.9365L44.5051 8.88037C44.484 8.82747 44.4744 8.77352 44.4766 8.71851C44.4787 8.66138 44.4903 8.60848 44.5115 8.55981C44.5347 8.51115 44.5654 8.46777 44.6035 8.42969C44.6437 8.3916 44.6892 8.36304 44.74 8.34399C44.7929 8.32284 44.8468 8.31331 44.9019 8.31543C44.959 8.31755 45.0119 8.32918 45.0605 8.35034C45.1092 8.3715 45.1526 8.40218 45.1907 8.44238C45.2309 8.48047 45.2605 8.52596 45.2795 8.57886L46.5364 12.051L47.7107 8.55981C47.7276 8.50903 47.7541 8.46566 47.79 8.42969C47.826 8.3916 47.8673 8.36304 47.9138 8.34399C47.9604 8.32495 48.0101 8.31543 48.063 8.31543C48.1159 8.31331 48.1677 8.32178 48.2185 8.34082C48.2672 8.35986 48.3095 8.38737 48.3455 8.42334C48.3835 8.45719 48.4121 8.4974 48.4312 8.54395C48.4523 8.58838 48.4639 8.63704 48.4661 8.68994C48.4682 8.74284 48.4597 8.79468 48.4407 8.84546L46.6411 13.5967C46.5586 13.8167 46.4718 14.004 46.3809 14.1584C46.292 14.3129 46.1947 14.4388 46.0889 14.5361C45.9831 14.6335 45.8656 14.7043 45.7366 14.7488C45.6075 14.7953 45.4626 14.8186 45.3018 14.8186Z" fill="#EE183E"/>
</svg>
