<svg width="56" height="20" viewBox="0 0 56 20" fill="none" xmlns="http://www.w3.org/2000/svg">
<rect width="56" height="20" rx="10" fill="#FF5CF4" fill-opacity="0.16"/>
<path d="M23.9883 12.96C24.0133 13.0306 24.0225 13.0978 24.0156 13.1616C24.0111 13.2231 23.994 13.2801 23.9644 13.3325C23.9347 13.3826 23.8949 13.4259 23.8447 13.4624C23.7969 13.4989 23.7422 13.5273 23.6807 13.5479C23.6191 13.5661 23.5576 13.5718 23.4961 13.5649C23.4368 13.5581 23.3799 13.541 23.3252 13.5137C23.2728 13.4863 23.2261 13.4499 23.1851 13.4043C23.144 13.3564 23.1121 13.3018 23.0894 13.2402C23.0506 13.14 23.0233 13.0306 23.0073 12.9121C22.9914 12.7913 22.9788 12.6672 22.9697 12.5396C22.9629 12.4119 22.9561 12.2843 22.9492 12.1567C22.9447 12.0291 22.9333 11.9072 22.915 11.791C22.89 11.6338 22.8592 11.4834 22.8228 11.3398C22.7863 11.1963 22.7293 11.0698 22.6519 10.9604C22.5744 10.8511 22.4696 10.7645 22.3374 10.7007C22.2075 10.6346 22.0355 10.6016 21.8213 10.6016H19.6953V13.0898C19.6953 13.1628 19.6828 13.2288 19.6577 13.2881C19.6326 13.3451 19.5985 13.3952 19.5552 13.4385C19.5119 13.4795 19.4606 13.5114 19.4014 13.5342C19.3444 13.557 19.2829 13.5684 19.2168 13.5684C19.1507 13.5684 19.0881 13.557 19.0288 13.5342C18.9718 13.5114 18.9217 13.4795 18.8784 13.4385C18.8374 13.3952 18.8044 13.3439 18.7793 13.2847C18.7542 13.2254 18.7417 13.1605 18.7417 13.0898V7.146C18.7417 7.07992 18.7542 7.01839 18.7793 6.96143C18.8044 6.90218 18.8374 6.85091 18.8784 6.80762C18.9217 6.76432 18.9718 6.73014 19.0288 6.70508C19.0881 6.68001 19.1507 6.66748 19.2168 6.66748H21.9067C22.2349 6.66748 22.5277 6.7085 22.7852 6.79053C23.0449 6.87256 23.2637 6.99105 23.4414 7.146C23.6214 7.30094 23.7581 7.49121 23.8516 7.7168C23.945 7.9401 23.9917 8.19303 23.9917 8.47559C23.9917 8.67839 23.9712 8.87093 23.9302 9.05322C23.8914 9.23324 23.8276 9.39844 23.7388 9.54883C23.6522 9.69694 23.5394 9.82796 23.4004 9.94189C23.2637 10.0535 23.0973 10.1424 22.9014 10.2085C23.0905 10.2541 23.242 10.3224 23.356 10.4136C23.4722 10.5024 23.5622 10.6084 23.626 10.7314C23.6921 10.8545 23.7388 10.9912 23.7661 11.1416C23.7957 11.2897 23.8197 11.4458 23.8379 11.6099C23.8516 11.7853 23.8618 11.9403 23.8687 12.0747C23.8778 12.2091 23.8869 12.3299 23.896 12.437C23.9051 12.5441 23.9165 12.6398 23.9302 12.7241C23.9438 12.8084 23.9632 12.887 23.9883 12.96ZM21.5 9.80518C21.6982 9.80518 21.8896 9.78695 22.0742 9.75049C22.2611 9.71403 22.4263 9.65023 22.5698 9.55908C22.7134 9.46794 22.8273 9.34489 22.9116 9.18994C22.9982 9.03499 23.0415 8.83789 23.0415 8.59863C23.0415 8.43457 23.0176 8.28532 22.9697 8.15088C22.9242 8.01416 22.8524 7.89795 22.7544 7.80225C22.6564 7.70426 22.5322 7.62907 22.3818 7.57666C22.2337 7.52197 22.056 7.49463 21.8486 7.49463H19.6953V9.80518H21.5ZM26.6646 12.8403C26.9243 12.8403 27.1453 12.805 27.3276 12.7344C27.5099 12.6637 27.658 12.576 27.772 12.4712C27.8882 12.3641 27.9725 12.2479 28.0249 12.1226C28.0796 11.995 28.1069 11.8753 28.1069 11.7637V10.9536C28.0363 11.0015 27.9486 11.0413 27.8438 11.0732C27.7389 11.1029 27.6239 11.1291 27.4985 11.1519C27.3755 11.1746 27.2456 11.1963 27.1089 11.2168C26.9744 11.2373 26.8423 11.2624 26.7124 11.292C26.5825 11.3193 26.4583 11.3547 26.3398 11.3979C26.2214 11.4412 26.1177 11.4959 26.0288 11.562C25.9399 11.6281 25.8693 11.7101 25.8169 11.8081C25.7645 11.9038 25.7383 12.02 25.7383 12.1567C25.7383 12.2866 25.7633 12.3949 25.8135 12.4814C25.8636 12.568 25.9308 12.6387 26.0151 12.6934C26.1017 12.7458 26.2008 12.7834 26.3125 12.8062C26.4242 12.8289 26.5415 12.8403 26.6646 12.8403ZM29.4946 13.0898C29.5151 13.1901 29.5106 13.2744 29.481 13.3428C29.4513 13.4089 29.4058 13.4613 29.3442 13.5C29.2827 13.541 29.2098 13.5695 29.1255 13.5854C29.0435 13.6037 28.9603 13.6128 28.876 13.6128C28.7734 13.6128 28.6789 13.5968 28.5923 13.5649C28.5057 13.533 28.4305 13.4852 28.3667 13.4214C28.3029 13.3576 28.2528 13.2778 28.2163 13.1821C28.1799 13.0841 28.1616 12.9702 28.1616 12.8403C28.0659 12.9702 27.9554 13.0841 27.8301 13.1821C27.707 13.2778 27.5726 13.3576 27.4268 13.4214C27.2809 13.4852 27.1283 13.533 26.9688 13.5649C26.8092 13.5968 26.6475 13.6128 26.4834 13.6128C26.2578 13.6128 26.0459 13.5866 25.8477 13.5342C25.6494 13.484 25.4751 13.4032 25.3247 13.2915C25.1766 13.1776 25.0592 13.0329 24.9727 12.8574C24.8861 12.6797 24.8428 12.4644 24.8428 12.2114C24.8428 12.02 24.8644 11.8537 24.9077 11.7124C24.951 11.5711 25.0103 11.4492 25.0854 11.3467C25.1606 11.2441 25.2495 11.1587 25.3521 11.0903C25.4569 11.0197 25.5697 10.9604 25.6904 10.9126C25.8112 10.8647 25.9388 10.8249 26.0732 10.793C26.2077 10.7588 26.3444 10.728 26.4834 10.7007C26.5837 10.6802 26.693 10.6608 26.8115 10.6426C26.9323 10.6243 27.0519 10.605 27.1704 10.5845C27.2912 10.5617 27.4074 10.5355 27.519 10.5059C27.633 10.4762 27.7332 10.4386 27.8198 10.3931C27.9064 10.3475 27.9759 10.2917 28.0283 10.2256C28.0807 10.1595 28.1069 10.0798 28.1069 9.98633C28.1069 9.81543 28.075 9.67757 28.0112 9.57275C27.9497 9.46794 27.8688 9.38704 27.7686 9.33008C27.6706 9.27311 27.5578 9.23551 27.4302 9.21729C27.3049 9.19678 27.1795 9.18652 27.0542 9.18652C26.9129 9.18652 26.7796 9.19678 26.6543 9.21729C26.5312 9.23779 26.4207 9.27425 26.3228 9.32666C26.2271 9.37679 26.145 9.44515 26.0767 9.53174C26.0083 9.61605 25.9593 9.72314 25.9297 9.85303C25.916 9.91227 25.8921 9.96468 25.8579 10.0103C25.826 10.0558 25.7873 10.0946 25.7417 10.1265C25.6961 10.1561 25.6449 10.1766 25.5879 10.188C25.5309 10.1994 25.474 10.1994 25.417 10.188C25.3577 10.1743 25.3053 10.1515 25.2598 10.1196C25.2142 10.0854 25.1755 10.0456 25.1436 10C25.1139 9.95215 25.0934 9.90088 25.082 9.84619C25.0706 9.78923 25.0718 9.73226 25.0854 9.67529C25.1356 9.44743 25.2244 9.25374 25.3521 9.09424C25.4819 8.93473 25.638 8.80485 25.8203 8.70459C26.0026 8.60433 26.2054 8.53141 26.4287 8.48584C26.652 8.44027 26.8844 8.41748 27.126 8.41748C27.2718 8.41748 27.4188 8.42432 27.5669 8.43799C27.7173 8.45166 27.8608 8.47786 27.9976 8.5166C28.1343 8.55306 28.2619 8.60433 28.3804 8.67041C28.4989 8.73649 28.6025 8.8208 28.6914 8.92334C28.7803 9.02588 28.8498 9.15007 28.8999 9.2959C28.95 9.43945 28.9751 9.60921 28.9751 9.80518V12.3242C28.9751 12.4154 28.9751 12.4917 28.9751 12.5532C28.9774 12.6147 28.9842 12.6649 28.9956 12.7036C29.0093 12.7424 29.0309 12.772 29.0605 12.7925C29.0924 12.8107 29.138 12.8221 29.1973 12.8267C29.3613 12.8403 29.4604 12.9281 29.4946 13.0898ZM32.311 8.45508C32.3726 8.44596 32.4318 8.44824 32.4888 8.46191C32.548 8.47559 32.6016 8.49951 32.6494 8.53369C32.6973 8.56559 32.7371 8.60661 32.769 8.65674C32.8032 8.70687 32.826 8.7627 32.8374 8.82422C32.8465 8.88574 32.8442 8.94613 32.8306 9.00537C32.8169 9.06234 32.793 9.11475 32.7588 9.1626C32.7246 9.21045 32.6825 9.25146 32.6323 9.28564C32.5822 9.31755 32.5264 9.33805 32.4648 9.34717C32.2051 9.37907 31.9863 9.44515 31.8086 9.54541C31.6309 9.64567 31.4873 9.77897 31.3779 9.94531C31.2708 10.1094 31.1934 10.3042 31.1455 10.5298C31.0999 10.7554 31.0771 11.0083 31.0771 11.2886V13.1343C31.0771 13.2004 31.0658 13.2607 31.043 13.3154C31.0202 13.3678 30.9883 13.4134 30.9473 13.4521C30.9085 13.4886 30.863 13.5171 30.8105 13.5376C30.7581 13.5581 30.7023 13.5684 30.6431 13.5684C30.5838 13.5684 30.5269 13.5581 30.4722 13.5376C30.4198 13.5171 30.3742 13.4875 30.3354 13.4487C30.2967 13.41 30.266 13.3644 30.2432 13.312C30.2204 13.2596 30.209 13.2004 30.209 13.1343V8.88232C30.209 8.81852 30.2192 8.76042 30.2397 8.70801C30.2625 8.6556 30.2933 8.61117 30.332 8.57471C30.3708 8.53825 30.4152 8.5109 30.4653 8.49268C30.5155 8.47217 30.5701 8.46191 30.6294 8.46191C30.6864 8.46191 30.7399 8.47217 30.79 8.49268C30.8424 8.51318 30.888 8.54167 30.9268 8.57812C30.9655 8.61458 30.9951 8.65902 31.0156 8.71143C31.0384 8.76156 31.0498 8.81852 31.0498 8.88232V9.4668C31.2025 9.17741 31.3779 8.9484 31.5762 8.77979C31.7744 8.61117 32.0194 8.50293 32.311 8.45508ZM35.4521 9.18652C35.2493 9.18652 35.0659 9.22184 34.9019 9.29248C34.7401 9.36312 34.5999 9.45882 34.4814 9.57959C34.3652 9.70036 34.2718 9.84163 34.2012 10.0034C34.1328 10.1652 34.0918 10.3372 34.0781 10.5195H36.8228C36.8228 10.3167 36.7909 10.1333 36.7271 9.96924C36.6632 9.80518 36.5721 9.66504 36.4536 9.54883C36.3351 9.43262 36.1904 9.34375 36.0195 9.28223C35.8509 9.21842 35.6618 9.18652 35.4521 9.18652ZM34.0781 11.2749C34.0781 11.4891 34.1077 11.6908 34.167 11.8799C34.2285 12.069 34.3208 12.2354 34.4438 12.3789C34.5692 12.5202 34.7253 12.633 34.9121 12.7173C35.1012 12.7993 35.3234 12.8403 35.5786 12.8403C35.8521 12.8403 36.0913 12.7811 36.2964 12.6626C36.5037 12.5418 36.6576 12.3516 36.7578 12.0918C36.8034 11.9756 36.874 11.8958 36.9697 11.8525C37.0677 11.8092 37.1714 11.8081 37.2808 11.8491C37.3354 11.8696 37.3822 11.8993 37.4209 11.938C37.4619 11.9744 37.4927 12.0166 37.5132 12.0645C37.536 12.1123 37.5485 12.1636 37.5508 12.2183C37.5531 12.2707 37.5439 12.3242 37.5234 12.3789C37.4414 12.5817 37.3366 12.7606 37.209 12.9155C37.0814 13.0682 36.9333 13.1969 36.7646 13.3018C36.596 13.4043 36.4092 13.4818 36.2041 13.5342C36.0013 13.5866 35.7837 13.6128 35.5513 13.6128C35.1548 13.6128 34.8107 13.5479 34.519 13.418C34.2274 13.2881 33.9836 13.1069 33.7876 12.8745C33.5939 12.6421 33.4469 12.3664 33.3467 12.0474C33.2487 11.7261 33.194 11.3752 33.1826 10.9946C33.1826 10.6232 33.2384 10.2803 33.3501 9.96582C33.4618 9.65137 33.619 9.38021 33.8218 9.15234C34.0269 8.9222 34.2707 8.74219 34.5532 8.6123C34.8381 8.48242 35.1514 8.41748 35.4932 8.41748C35.7575 8.41748 35.9967 8.45052 36.2109 8.5166C36.4251 8.5804 36.6143 8.66927 36.7783 8.7832C36.9447 8.89714 37.0871 9.03158 37.2056 9.18652C37.3263 9.34147 37.4243 9.51009 37.4995 9.69238C37.577 9.87467 37.634 10.0661 37.6704 10.2666C37.7069 10.4648 37.7251 10.6654 37.7251 10.8682C37.7251 10.9251 37.7137 10.9787 37.6909 11.0288C37.6704 11.0767 37.6408 11.1188 37.6021 11.1553C37.5656 11.1917 37.5212 11.2214 37.4688 11.2441C37.4186 11.2646 37.3651 11.2749 37.3081 11.2749H34.0781Z" fill="#FF5CF4"/>
</svg>
