<svg width="56" height="20" viewBox="0 0 56 20" fill="none" xmlns="http://www.w3.org/2000/svg">
<rect width="56" height="20" rx="10" fill="#00D42F" fill-opacity="0.16"/>
<path d="M6.07422 10.699C6.07422 11.8246 6.64128 12.3875 7.77539 12.3875C8.8418 12.3875 9.375 11.8246 9.375 10.699V7.03638C9.375 6.97078 9.38664 6.91048 9.40991 6.85547C9.43319 6.80046 9.46387 6.75391 9.50195 6.71582C9.54215 6.67562 9.5887 6.64494 9.6416 6.62378C9.69661 6.60262 9.7548 6.59204 9.81616 6.59204C9.87752 6.59204 9.93465 6.60262 9.98755 6.62378C10.0426 6.64494 10.0902 6.67562 10.1304 6.71582C10.1706 6.75391 10.2023 6.80046 10.2256 6.85547C10.2489 6.91048 10.2605 6.97078 10.2605 7.03638V10.699C10.2605 11.1052 10.2055 11.4607 10.0955 11.7654C9.98543 12.068 9.82463 12.3208 9.61304 12.5239C9.40145 12.7271 9.14119 12.8794 8.83228 12.981C8.52336 13.0804 8.17106 13.1301 7.77539 13.1301C7.36491 13.1301 6.99886 13.0825 6.67725 12.9873C6.35775 12.8921 6.08797 12.7461 5.86792 12.5493C5.64787 12.3504 5.47965 12.0986 5.36328 11.7939C5.24691 11.4871 5.18872 11.1222 5.18872 10.699V7.03638C5.18872 6.97078 5.20036 6.91048 5.22363 6.85547C5.24691 6.80046 5.27759 6.75391 5.31567 6.71582C5.35588 6.67562 5.40243 6.64494 5.45532 6.62378C5.51034 6.60262 5.56852 6.59204 5.62988 6.59204C5.69124 6.59204 5.74837 6.60262 5.80127 6.62378C5.85628 6.64494 5.90389 6.67562 5.94409 6.71582C5.98429 6.75391 6.01603 6.80046 6.03931 6.85547C6.06258 6.91048 6.07422 6.97078 6.07422 7.03638V10.699ZM11.5078 8.71216C11.5078 8.65291 11.5173 8.59896 11.5364 8.55029C11.5575 8.50163 11.5861 8.46037 11.6221 8.42651C11.658 8.39266 11.6993 8.36727 11.7458 8.35034C11.7924 8.3313 11.8432 8.32178 11.8982 8.32178C11.9511 8.32178 12.0008 8.3313 12.0474 8.35034C12.096 8.36938 12.1383 8.39583 12.1743 8.42969C12.2103 8.46354 12.2378 8.5048 12.2568 8.55347C12.278 8.60002 12.2886 8.65291 12.2886 8.71216V9.07397C12.4451 8.80526 12.6409 8.60636 12.8757 8.47729C13.1127 8.34611 13.3984 8.28052 13.7327 8.28052C14.0416 8.28052 14.2965 8.32284 14.4976 8.40747C14.7007 8.48999 14.8615 8.60531 14.98 8.75342C15.1006 8.89941 15.1842 9.07292 15.2307 9.27393C15.2794 9.47493 15.3037 9.69393 15.3037 9.93091V12.6604C15.3037 12.7218 15.2931 12.7778 15.272 12.8286C15.2508 12.8773 15.2212 12.9196 15.1831 12.9556C15.1471 12.9894 15.1048 13.0159 15.0562 13.0349C15.0075 13.054 14.9556 13.0635 14.9006 13.0635C14.8456 13.0635 14.7927 13.054 14.7419 13.0349C14.6933 13.0159 14.651 12.9884 14.615 12.9524C14.579 12.9164 14.5505 12.8741 14.5293 12.8254C14.5081 12.7768 14.4976 12.7218 14.4976 12.6604V9.93091C14.4976 9.61141 14.4214 9.37549 14.269 9.22314C14.1188 9.0708 13.9009 8.99463 13.6152 8.99463C13.3973 8.99463 13.2069 9.03166 13.0439 9.10571C12.881 9.17765 12.7456 9.2771 12.6377 9.40405C12.5298 9.52889 12.4483 9.67594 12.3933 9.84521C12.3404 10.0145 12.314 10.1954 12.314 10.3879V12.6604C12.314 12.7218 12.3034 12.7778 12.2822 12.8286C12.2611 12.8773 12.2314 12.9196 12.1934 12.9556C12.1574 12.9894 12.1151 13.0159 12.0664 13.0349C12.0177 13.054 11.9659 13.0635 11.9109 13.0635C11.8559 13.0635 11.803 13.054 11.7522 13.0349C11.7035 13.0159 11.6612 12.9884 11.6252 12.9524C11.5893 12.9164 11.5607 12.8741 11.5396 12.8254C11.5184 12.7768 11.5078 12.7218 11.5078 12.6604V8.71216ZM20.2327 11.7432C20.1628 11.9611 20.0708 12.1547 19.9565 12.324C19.8423 12.4932 19.7058 12.6361 19.5471 12.7524C19.3884 12.8667 19.2054 12.9535 18.998 13.0127C18.7928 13.0741 18.5622 13.1047 18.3062 13.1047C17.9528 13.1047 17.6428 13.0465 17.3762 12.9302C17.1096 12.8117 16.8875 12.6477 16.7097 12.4382C16.532 12.2288 16.3976 11.9801 16.3066 11.6924C16.2178 11.4046 16.1733 11.0904 16.1733 10.7498C16.1733 10.4091 16.2167 10.0885 16.3035 9.78809C16.3902 9.48763 16.5225 9.22632 16.7002 9.00415C16.8779 8.77987 17.1022 8.60319 17.373 8.47412C17.6439 8.34505 17.9634 8.28052 18.3315 8.28052C18.5495 8.28052 18.7568 8.30379 18.9536 8.35034C19.1525 8.39689 19.3334 8.46777 19.4963 8.56299C19.6593 8.65609 19.801 8.77458 19.9216 8.91846C20.0444 9.06022 20.1385 9.22632 20.2041 9.41675C20.2231 9.47176 20.2306 9.52677 20.2263 9.58179C20.2221 9.63468 20.2083 9.68547 20.1851 9.73413C20.1639 9.78068 20.1343 9.823 20.0962 9.86108C20.0581 9.89705 20.0126 9.92456 19.9597 9.9436C19.9068 9.96265 19.8529 9.97111 19.7979 9.96899C19.745 9.96476 19.6942 9.95207 19.6455 9.93091C19.599 9.90763 19.5566 9.87695 19.5186 9.83887C19.4805 9.79867 19.4519 9.75212 19.4329 9.69922C19.3546 9.4707 19.2308 9.29614 19.0615 9.17554C18.8944 9.05493 18.6733 8.99463 18.3982 8.99463C18.1316 8.99463 17.9084 9.04329 17.7285 9.14062C17.5508 9.23796 17.408 9.36808 17.3 9.53101C17.1943 9.69393 17.1181 9.88118 17.0715 10.0928C17.0271 10.3044 17.0049 10.5234 17.0049 10.7498C17.0049 10.8894 17.0155 11.0269 17.0366 11.1624C17.0578 11.2957 17.0906 11.4237 17.135 11.5464C17.1794 11.667 17.2355 11.7791 17.3032 11.8828C17.373 11.9844 17.4556 12.0732 17.5508 12.1494C17.6481 12.2235 17.7592 12.2817 17.884 12.324C18.0089 12.3663 18.1496 12.3875 18.3062 12.3875C18.632 12.3875 18.8891 12.3113 19.0774 12.1589C19.2678 12.0066 19.4001 11.7855 19.4741 11.4956C19.491 11.4427 19.5164 11.3962 19.5503 11.356C19.5863 11.3158 19.6265 11.284 19.6709 11.2607C19.7174 11.2375 19.7661 11.2237 19.8169 11.2195C19.8698 11.2153 19.9227 11.2216 19.9756 11.2385C20.0285 11.2555 20.074 11.2808 20.1121 11.3147C20.1523 11.3486 20.184 11.3888 20.2073 11.4353C20.2327 11.4819 20.2475 11.5316 20.2517 11.5845C20.2559 11.6374 20.2496 11.6903 20.2327 11.7432ZM21.6768 10.699C21.6768 10.9783 21.7127 11.2237 21.7847 11.4353C21.8566 11.6448 21.955 11.8204 22.0798 11.9622C22.2047 12.1039 22.3517 12.2108 22.521 12.2827C22.6924 12.3525 22.8754 12.3875 23.0701 12.3875C23.2542 12.3875 23.4298 12.3525 23.5969 12.2827C23.7641 12.2108 23.9101 12.1039 24.0349 11.9622C24.1619 11.8204 24.2624 11.6448 24.3364 11.4353C24.4105 11.2237 24.4475 10.9783 24.4475 10.699C24.4475 10.4303 24.4105 10.1901 24.3364 9.97852C24.2624 9.76693 24.1619 9.58813 24.0349 9.44214C23.9101 9.29614 23.7641 9.18506 23.5969 9.10889C23.4298 9.03271 23.2542 8.99463 23.0701 8.99463C22.8754 8.99463 22.6924 9.03271 22.521 9.10889C22.3517 9.18506 22.2047 9.29614 22.0798 9.44214C21.955 9.58813 21.8566 9.76693 21.7847 9.97852C21.7127 10.1901 21.6768 10.4303 21.6768 10.699ZM20.8452 10.699C20.8452 10.3583 20.8918 10.0409 20.9849 9.74683C21.0801 9.4506 21.2208 9.19458 21.407 8.97876C21.5932 8.76082 21.8249 8.59049 22.1021 8.46777C22.3792 8.34294 22.7019 8.28052 23.0701 8.28052C23.434 8.28052 23.7535 8.34294 24.0286 8.46777C24.3057 8.59049 24.5374 8.76082 24.7236 8.97876C24.9119 9.19458 25.0537 9.4506 25.1489 9.74683C25.2441 10.0409 25.2917 10.3583 25.2917 10.699C25.2917 11.0333 25.2441 11.3475 25.1489 11.6416C25.0537 11.9336 24.9119 12.1886 24.7236 12.4065C24.5374 12.6223 24.3057 12.7926 24.0286 12.9175C23.7535 13.0423 23.434 13.1047 23.0701 13.1047C22.7019 13.1047 22.3792 13.0423 22.1021 12.9175C21.8249 12.7926 21.5932 12.6223 21.407 12.4065C21.2208 12.1886 21.0801 11.9336 20.9849 11.6416C20.8918 11.3475 20.8452 11.0333 20.8452 10.699ZM26.1455 8.71216C26.1455 8.65291 26.155 8.59896 26.1741 8.55029C26.1952 8.50163 26.2238 8.46037 26.2598 8.42651C26.2957 8.39266 26.337 8.36727 26.3835 8.35034C26.4301 8.3313 26.4809 8.32178 26.5359 8.32178C26.5888 8.32178 26.6385 8.3313 26.6851 8.35034C26.7337 8.36938 26.776 8.39583 26.812 8.42969C26.848 8.46354 26.8755 8.5048 26.8945 8.55347C26.9157 8.60002 26.9263 8.65291 26.9263 8.71216V9.02319C27.0934 8.76294 27.2934 8.57463 27.5261 8.45825C27.761 8.33976 28.0371 8.28052 28.3545 8.28052C28.4899 8.28052 28.6232 8.29533 28.7544 8.32495C28.8856 8.35246 29.0072 8.39689 29.1194 8.45825C29.2315 8.51961 29.331 8.5979 29.4177 8.69312C29.5066 8.78833 29.5775 8.90259 29.6304 9.03589C29.7975 8.76929 29.9954 8.57674 30.2239 8.45825C30.4545 8.33976 30.7158 8.28052 31.0078 8.28052C31.2427 8.28052 31.4543 8.30697 31.6426 8.35986C31.8309 8.41064 31.9917 8.49211 32.125 8.60425C32.2583 8.71427 32.3609 8.85498 32.4329 9.02637C32.5048 9.19775 32.5408 9.40405 32.5408 9.64526V12.6604C32.5408 12.7218 32.5302 12.7778 32.509 12.8286C32.4879 12.8773 32.4583 12.9196 32.4202 12.9556C32.3842 12.9894 32.3419 13.0159 32.2932 13.0349C32.2445 13.054 32.1927 13.0635 32.1377 13.0635C32.0827 13.0635 32.0298 13.054 31.979 13.0349C31.9303 13.0159 31.888 12.9884 31.8521 12.9524C31.8161 12.9164 31.7875 12.8741 31.7664 12.8254C31.7452 12.7768 31.7346 12.7218 31.7346 12.6604V9.98486C31.7346 9.84945 31.723 9.72144 31.6997 9.60083C31.6785 9.48022 31.6373 9.37549 31.5759 9.28662C31.5146 9.19564 31.4289 9.12476 31.3188 9.07397C31.2088 9.02108 31.066 8.99463 30.8904 8.99463C30.7126 8.99463 30.5529 9.02214 30.4111 9.07715C30.2694 9.13005 30.1488 9.20622 30.0493 9.30566C29.952 9.40511 29.8769 9.52572 29.824 9.66748C29.7732 9.80713 29.7478 9.96476 29.7478 10.1404V12.6604C29.7478 12.7218 29.7372 12.7778 29.7161 12.8286C29.6949 12.8773 29.6653 12.9196 29.6272 12.9556C29.5912 12.9894 29.5489 13.0159 29.5002 13.0349C29.4516 13.054 29.3997 13.0635 29.3447 13.0635C29.2897 13.0635 29.2368 13.054 29.186 13.0349C29.1374 13.0159 29.0951 12.9884 29.0591 12.9524C29.0231 12.9164 28.9945 12.8741 28.9734 12.8254C28.9522 12.7768 28.9417 12.7218 28.9417 12.6604V9.98486C28.9417 9.84521 28.93 9.71509 28.9067 9.59448C28.8835 9.47388 28.8411 9.36914 28.7798 9.28027C28.7205 9.19141 28.6391 9.12158 28.5354 9.0708C28.4317 9.02002 28.2984 8.99463 28.1355 8.99463C27.9874 8.99463 27.8551 9.01473 27.7388 9.05493C27.6245 9.09513 27.5229 9.14803 27.4341 9.21362C27.3473 9.27922 27.2733 9.35327 27.2119 9.43579C27.1506 9.51831 27.1008 9.60189 27.0627 9.68652C27.0247 9.77116 26.9961 9.85368 26.9771 9.93408C26.9601 10.0124 26.9517 10.0811 26.9517 10.1404V12.6604C26.9517 12.7218 26.9411 12.7778 26.9199 12.8286C26.8988 12.8773 26.8691 12.9196 26.8311 12.9556C26.7951 12.9894 26.7528 13.0159 26.7041 13.0349C26.6554 13.054 26.6036 13.0635 26.5486 13.0635C26.4936 13.0635 26.4407 13.054 26.3899 13.0349C26.3412 13.0159 26.2989 12.9884 26.2629 12.9524C26.227 12.9164 26.1984 12.8741 26.1772 12.8254C26.1561 12.7768 26.1455 12.7218 26.1455 12.6604V8.71216ZM33.6611 8.71216C33.6611 8.65291 33.6707 8.59896 33.6897 8.55029C33.7109 8.50163 33.7394 8.46037 33.7754 8.42651C33.8114 8.39266 33.8526 8.36727 33.8992 8.35034C33.9457 8.3313 33.9965 8.32178 34.0515 8.32178C34.1044 8.32178 34.1541 8.3313 34.2007 8.35034C34.2493 8.36938 34.2917 8.39583 34.3276 8.42969C34.3636 8.46354 34.3911 8.5048 34.4102 8.55347C34.4313 8.60002 34.4419 8.65291 34.4419 8.71216V9.02319C34.609 8.76294 34.809 8.57463 35.0417 8.45825C35.2766 8.33976 35.5527 8.28052 35.8701 8.28052C36.0055 8.28052 36.1388 8.29533 36.27 8.32495C36.4012 8.35246 36.5229 8.39689 36.635 8.45825C36.7472 8.51961 36.8466 8.5979 36.9333 8.69312C37.0222 8.78833 37.0931 8.90259 37.146 9.03589C37.3132 8.76929 37.511 8.57674 37.7395 8.45825C37.9701 8.33976 38.2314 8.28052 38.5234 8.28052C38.7583 8.28052 38.9699 8.30697 39.1582 8.35986C39.3465 8.41064 39.5073 8.49211 39.6406 8.60425C39.7739 8.71427 39.8765 8.85498 39.9485 9.02637C40.0204 9.19775 40.0564 9.40405 40.0564 9.64526V12.6604C40.0564 12.7218 40.0458 12.7778 40.0247 12.8286C40.0035 12.8773 39.9739 12.9196 39.9358 12.9556C39.8998 12.9894 39.8575 13.0159 39.8088 13.0349C39.7602 13.054 39.7083 13.0635 39.6533 13.0635C39.5983 13.0635 39.5454 13.054 39.4946 13.0349C39.446 13.0159 39.4036 12.9884 39.3677 12.9524C39.3317 12.9164 39.3031 12.8741 39.282 12.8254C39.2608 12.7768 39.2502 12.7218 39.2502 12.6604V9.98486C39.2502 9.84945 39.2386 9.72144 39.2153 9.60083C39.1942 9.48022 39.1529 9.37549 39.0916 9.28662C39.0302 9.19564 38.9445 9.12476 38.8345 9.07397C38.7244 9.02108 38.5816 8.99463 38.406 8.99463C38.2283 8.99463 38.0685 9.02214 37.9268 9.07715C37.785 9.13005 37.6644 9.20622 37.5649 9.30566C37.4676 9.40511 37.3925 9.52572 37.3396 9.66748C37.2888 9.80713 37.2634 9.96476 37.2634 10.1404V12.6604C37.2634 12.7218 37.2528 12.7778 37.2317 12.8286C37.2105 12.8773 37.1809 12.9196 37.1428 12.9556C37.1069 12.9894 37.0645 13.0159 37.0159 13.0349C36.9672 13.054 36.9154 13.0635 36.8604 13.0635C36.8053 13.0635 36.7524 13.054 36.7017 13.0349C36.653 13.0159 36.6107 12.9884 36.5747 12.9524C36.5387 12.9164 36.5102 12.8741 36.489 12.8254C36.4679 12.7768 36.4573 12.7218 36.4573 12.6604V9.98486C36.4573 9.84521 36.4456 9.71509 36.4224 9.59448C36.3991 9.47388 36.3568 9.36914 36.2954 9.28027C36.2362 9.19141 36.1547 9.12158 36.051 9.0708C35.9473 9.02002 35.814 8.99463 35.6511 8.99463C35.503 8.99463 35.3708 9.01473 35.2544 9.05493C35.1401 9.09513 35.0386 9.14803 34.9497 9.21362C34.863 9.27922 34.7889 9.35327 34.7275 9.43579C34.6662 9.51831 34.6165 9.60189 34.5784 9.68652C34.5403 9.77116 34.5117 9.85368 34.4927 9.93408C34.4757 10.0124 34.4673 10.0811 34.4673 10.1404V12.6604C34.4673 12.7218 34.4567 12.7778 34.4355 12.8286C34.4144 12.8773 34.3848 12.9196 34.3467 12.9556C34.3107 12.9894 34.2684 13.0159 34.2197 13.0349C34.1711 13.054 34.1192 13.0635 34.0642 13.0635C34.0092 13.0635 33.9563 13.054 33.9055 13.0349C33.8569 13.0159 33.8145 12.9884 33.7786 12.9524C33.7426 12.9164 33.714 12.8741 33.6929 12.8254C33.6717 12.7768 33.6611 12.7218 33.6611 12.6604V8.71216ZM41.7607 10.699C41.7607 10.9783 41.7967 11.2237 41.8687 11.4353C41.9406 11.6448 42.039 11.8204 42.1638 11.9622C42.2887 12.1039 42.4357 12.2108 42.605 12.2827C42.7764 12.3525 42.9594 12.3875 43.1541 12.3875C43.3381 12.3875 43.5138 12.3525 43.6809 12.2827C43.8481 12.2108 43.9941 12.1039 44.1189 11.9622C44.2458 11.8204 44.3464 11.6448 44.4204 11.4353C44.4945 11.2237 44.5315 10.9783 44.5315 10.699C44.5315 10.4303 44.4945 10.1901 44.4204 9.97852C44.3464 9.76693 44.2458 9.58813 44.1189 9.44214C43.9941 9.29614 43.8481 9.18506 43.6809 9.10889C43.5138 9.03271 43.3381 8.99463 43.1541 8.99463C42.9594 8.99463 42.7764 9.03271 42.605 9.10889C42.4357 9.18506 42.2887 9.29614 42.1638 9.44214C42.039 9.58813 41.9406 9.76693 41.8687 9.97852C41.7967 10.1901 41.7607 10.4303 41.7607 10.699ZM40.9292 10.699C40.9292 10.3583 40.9757 10.0409 41.0688 9.74683C41.1641 9.4506 41.3048 9.19458 41.491 8.97876C41.6772 8.76082 41.9089 8.59049 42.186 8.46777C42.4632 8.34294 42.7859 8.28052 43.1541 8.28052C43.518 8.28052 43.8375 8.34294 44.1125 8.46777C44.3897 8.59049 44.6214 8.76082 44.8076 8.97876C44.9959 9.19458 45.1377 9.4506 45.2329 9.74683C45.3281 10.0409 45.3757 10.3583 45.3757 10.699C45.3757 11.0333 45.3281 11.3475 45.2329 11.6416C45.1377 11.9336 44.9959 12.1886 44.8076 12.4065C44.6214 12.6223 44.3897 12.7926 44.1125 12.9175C43.8375 13.0423 43.518 13.1047 43.1541 13.1047C42.7859 13.1047 42.4632 13.0423 42.186 12.9175C41.9089 12.7926 41.6772 12.6223 41.491 12.4065C41.3048 12.1886 41.1641 11.9336 41.0688 11.6416C40.9757 11.3475 40.9292 11.0333 40.9292 10.699ZM46.2295 8.71216C46.2295 8.65291 46.239 8.59896 46.2581 8.55029C46.2792 8.50163 46.3078 8.46037 46.3438 8.42651C46.3797 8.39266 46.421 8.36727 46.4675 8.35034C46.5141 8.3313 46.5649 8.32178 46.6199 8.32178C46.6728 8.32178 46.7225 8.3313 46.769 8.35034C46.8177 8.36938 46.86 8.39583 46.896 8.42969C46.932 8.46354 46.9595 8.5048 46.9785 8.55347C46.9997 8.60002 47.0103 8.65291 47.0103 8.71216V9.07397C47.1668 8.80526 47.3625 8.60636 47.5974 8.47729C47.8344 8.34611 48.12 8.28052 48.4543 8.28052C48.7633 8.28052 49.0182 8.32284 49.2192 8.40747C49.4224 8.48999 49.5832 8.60531 49.7017 8.75342C49.8223 8.89941 49.9058 9.07292 49.9524 9.27393C50.0011 9.47493 50.0254 9.69393 50.0254 9.93091V12.6604C50.0254 12.7218 50.0148 12.7778 49.9937 12.8286C49.9725 12.8773 49.9429 12.9196 49.9048 12.9556C49.8688 12.9894 49.8265 13.0159 49.7778 13.0349C49.7292 13.054 49.6773 13.0635 49.6223 13.0635C49.5673 13.0635 49.5144 13.054 49.4636 13.0349C49.415 13.0159 49.3726 12.9884 49.3367 12.9524C49.3007 12.9164 49.2721 12.8741 49.251 12.8254C49.2298 12.7768 49.2192 12.7218 49.2192 12.6604V9.93091C49.2192 9.61141 49.1431 9.37549 48.9907 9.22314C48.8405 9.0708 48.6226 8.99463 48.3369 8.99463C48.119 8.99463 47.9285 9.03166 47.7656 9.10571C47.6027 9.17765 47.4673 9.2771 47.3594 9.40405C47.2515 9.52889 47.17 9.67594 47.115 9.84521C47.0621 10.0145 47.0356 10.1954 47.0356 10.3879V12.6604C47.0356 12.7218 47.0251 12.7778 47.0039 12.8286C46.9827 12.8773 46.9531 12.9196 46.915 12.9556C46.8791 12.9894 46.8368 13.0159 46.7881 13.0349C46.7394 13.054 46.6876 13.0635 46.6326 13.0635C46.5776 13.0635 46.5247 13.054 46.4739 13.0349C46.4252 13.0159 46.3829 12.9884 46.3469 12.9524C46.311 12.9164 46.2824 12.8741 46.2612 12.8254C46.2401 12.7768 46.2295 12.7218 46.2295 12.6604V8.71216Z" fill="#00D52F"/>
</svg>
